<svg width="411" height="183" viewBox="0 0 411 183" fill="none" xmlns="http://www.w3.org/2000/svg">
<g filter="url(#filter0_d_2073_16294)">
<path d="M95.6504 152.731C99.9883 134.132 94.478 113.178 95.6504 104.215C94.478 99.1487 92.9148 93.8879 90.9609 88.4322V87.8476C91.7424 73.0394 92.3286 57.6465 92.7194 41.6692C90.3747 35.8238 89.0069 28.2248 88.6161 18.8722C88.6161 13.0268 88.2253 9.9093 87.4437 9.51961C83.5358 7.57116 80.0186 9.12992 76.8923 14.1959C74.5475 18.8722 74.3521 26.4712 76.3061 36.9929C78.2601 45.5661 77.6739 58.4259 74.5475 75.5724C74.1567 76.7414 73.766 77.5208 73.3752 77.9105C72.9844 78.3002 72.3982 78.6899 71.6166 79.0796H71.0304L69.2718 79.6641C67.3179 80.4435 66.1455 80.8332 65.7547 80.8332H63.4099H61.6514C62.0422 80.0538 62.6283 79.4693 63.4099 79.0796L64.5823 78.495H65.1685C65.5593 78.1054 66.1455 77.9105 66.9271 77.9105H69.2718H69.858C70.1202 77.6491 70.3823 77.4754 70.6445 77.3893C70.5784 77.3695 70.5116 77.3484 70.4442 77.326C68.4902 76.1569 66.3409 66.4146 63.9961 48.0991C63.2145 40.6949 62.6283 36.4083 62.2376 35.2393C57.1572 20.8207 52.8585 10.4938 49.3414 4.25878C48.169 3.86909 46.8012 4.25878 45.2381 5.42785C42.1117 6.98662 40.3531 9.51962 39.9624 13.0268C39.5716 16.1444 41.3301 22.3794 45.2381 31.732C46.4104 34.8496 47.192 37.3826 47.5828 39.331C49.146 44.0073 49.9276 55.8929 49.9276 74.9878V79.6641L46.4104 76.7414C46.0196 76.3517 45.2381 74.5981 44.0657 71.4806C40.9393 59.4002 37.813 51.2166 34.6866 46.93C30.7787 41.4743 27.2616 36.0186 24.1352 30.563C22.5721 27.8351 21.3997 26.2764 20.6181 25.8867C19.8365 25.497 18.8595 25.8867 17.6871 27.0557C15.3424 28.6145 14.3654 31.5372 14.7562 35.8238C15.147 40.8898 18.4687 47.7094 24.7214 56.2826C29.8017 62.9074 32.5373 68.9476 32.9281 74.4033L33.159 76.2451C33.2852 76.4105 33.4037 76.576 33.5143 76.7414C34.2958 77.5208 34.6866 78.8847 34.6866 80.8332C35.0774 82.7816 35.4682 84.3404 35.859 85.5095L36.4452 87.2631C36.4452 88.0425 36.6406 88.8219 37.0314 89.6013C37.4222 91.16 37.813 92.5239 38.2038 93.693C38.2038 94.4724 38.3992 95.8363 38.79 97.7848C39.1808 99.7332 39.5716 101.097 39.9624 101.877C39.1808 101.487 38.3992 100.318 37.6176 98.3693C36.836 97.2002 36.2498 95.8363 35.859 94.2776C35.0774 91.16 34.6866 88.2373 34.6866 85.5095V83.1713C34.6866 82.392 34.4912 81.8074 34.1005 81.4177C33.8715 80.5046 33.5756 79.6584 33.2125 78.879L29.9971 76.7414C21.7905 71.6754 15.3424 65.0507 10.6529 56.8672L8.8943 53.9445C8.50351 53.9445 8.11271 54.1393 7.72192 54.529C5.76796 55.6981 4.59558 57.062 4.20478 58.6208C3.0324 66.0249 11.6299 78.495 29.9971 96.0312L30.5833 96.6157V97.2002C33.3189 107.332 36.4452 114.152 39.9624 117.659L41.1347 118.244V118.828C41.1347 119.608 41.3301 121.751 41.7209 125.258C42.5025 128.376 44.2611 133.442 46.9966 140.456C49.7322 147.081 53.4447 152.731 58.1342 157.408L58.7204 157.992L75.1337 164.422C74.7429 164.032 74.3521 163.448 73.9613 162.668V159.746L73.3752 155.654L69.2718 151.562C67.7087 149.614 66.3409 147.86 65.1685 146.301C63.9961 144.743 63.0191 142.794 62.2376 140.456C61.456 138.508 61.0652 136.364 61.0652 134.026C61.0652 130.909 61.8468 126.817 63.4099 121.751C64.5423 118.74 66.0392 115.002 67.9007 110.536C67.1697 109.95 66.1828 109.279 64.94 108.522C64.3652 109.048 63.0736 110.145 61.0652 111.814C59.8928 112.593 58.3296 113.372 56.3757 114.152C56.3757 114.542 55.5941 114.931 54.0309 115.321C53.2493 116.1 52.4677 116.49 51.6861 116.49C50.5138 116.88 49.5368 117.075 48.7552 117.075C48.3644 117.075 47.9736 116.88 47.5828 116.49H46.4104C46.4104 116.1 46.8012 115.711 47.5828 115.321H48.7552C49.146 114.931 49.5368 114.736 49.9276 114.736V114.152H51.1C51.4907 113.762 52.2723 113.372 53.4447 112.983H54.0309C54.8125 112.593 55.3987 112.398 55.7895 112.398C56.9619 112.009 58.525 111.424 60.479 110.645C60.8698 110.255 61.2606 110.06 61.6514 110.06C62.433 109.67 63.0191 109.281 63.4099 108.891C63.9233 108.635 64.3523 108.463 64.6971 108.375L64.5823 108.306H59.3066C56.5711 108.306 54.6171 108.112 53.4447 107.722C52.6631 107.722 51.6861 107.527 50.5138 107.137L48.169 105.968C46.6058 104.799 45.2381 103.24 44.0657 101.292C43.6749 100.513 43.2841 99.5384 42.8933 98.3693V95.4466C43.2841 93.1085 44.2611 91.3549 45.8243 90.1858C46.215 89.7961 46.8012 89.4064 47.5828 89.0167C47.9736 89.0167 48.5598 88.8219 49.3414 88.4322C50.123 88.4322 51.1 88.8219 52.2723 89.6013C54.6171 90.7703 56.3757 91.3549 57.548 91.3549C59.8928 91.7446 63.4099 91.9394 68.0995 91.9394H79.8233C80.214 91.9394 80.8002 92.1343 81.5818 92.524L82.7542 93.693C83.145 94.0827 83.7312 94.8621 84.5128 96.0312C85.2943 97.2002 86.2713 98.759 87.4437 100.707C89.7885 104.604 91.9378 107.722 93.8918 110.06C91.547 108.112 89.0069 105.384 86.2713 101.877C84.7082 99.9281 83.5358 98.3693 82.7542 97.2002C81.9726 96.0312 81.3864 95.4466 80.9956 95.4466C80.214 94.6672 79.6279 94.2776 79.2371 94.2776H76.8923H73.9613C71.6166 94.6672 69.6626 94.8621 68.0995 94.8621C66.5363 94.8621 64.7777 94.6672 62.8237 94.2776C60.479 94.2776 58.525 94.0827 56.9619 93.693C56.1803 93.693 55.2033 93.3033 54.0309 92.524C53.6401 92.524 52.8585 92.1343 51.6861 91.3549C50.5138 90.9652 49.7322 90.7703 49.3414 90.7703H48.169L47.5828 91.3549C46.4104 92.5239 45.6289 93.8879 45.2381 95.4466C44.8473 97.3951 45.0427 99.1487 45.8243 100.707C46.6058 102.266 47.7782 103.435 49.3414 104.215L51.1 105.968C51.8815 105.968 52.8585 106.163 54.0309 106.553C56.3757 106.943 60.0882 107.332 65.1685 107.722C66.3409 108.501 67.7087 109.476 69.2718 110.645C70.835 111.814 72.2028 112.788 73.3752 113.567C76.1107 115.516 78.4555 117.659 80.4094 119.997L79.8233 120.582C78.2601 118.244 75.9153 115.905 72.789 113.567C71.2258 112.398 69.858 111.619 68.6856 111.229C68.501 111.045 68.2836 110.85 68.0335 110.644C67.8505 111.638 67.2863 113.391 66.3409 115.905C65.5593 118.633 64.9731 120.777 64.5823 122.335C63.0191 127.401 62.433 131.298 62.8237 134.026C62.8237 136.364 63.2145 138.313 63.9961 139.871C64.7777 141.43 65.9501 143.184 67.5133 145.132C69.0764 147.081 70.2488 148.64 71.0304 149.809C71.4212 150.588 72.0074 151.562 72.789 152.731C73.9613 153.9 74.7429 154.485 75.1337 154.485V159.746V164.422C75.5957 164.439 76.0683 164.439 76.5491 164.422C84.254 164.154 94.0436 159.621 95.6504 152.731Z" fill="#C3E6B8"/>
<path d="M64.5823 122.335C64.9731 120.777 65.5593 118.633 66.3409 115.905C67.2863 113.391 67.8505 111.638 68.0335 110.644C67.9903 110.608 67.946 110.573 67.9007 110.536C66.0392 115.002 64.5423 118.74 63.4099 121.751C61.8468 126.817 61.0652 130.909 61.0652 134.026C61.0652 136.364 61.456 138.508 62.2376 140.456C63.0191 142.794 63.9961 144.743 65.1685 146.301C66.3409 147.86 67.7087 149.614 69.2718 151.562L73.3752 155.654L73.9613 159.746V162.668C74.3521 163.448 74.7429 164.032 75.1337 164.422V159.746V154.485C74.7429 154.485 73.9613 153.9 72.789 152.731C72.0074 151.562 71.4212 150.588 71.0304 149.809C70.2488 148.64 69.0764 147.081 67.5133 145.132C65.9501 143.184 64.7777 141.43 63.9961 139.871C63.2145 138.313 62.8237 136.364 62.8237 134.026C62.433 131.298 63.0191 127.401 64.5823 122.335Z" fill="#19665E"/>
<path d="M72.789 113.567C75.9153 115.905 78.2601 118.244 79.8233 120.582L80.4094 119.997C78.4555 117.659 76.1107 115.516 73.3752 113.567C72.2028 112.788 70.835 111.814 69.2718 110.645C67.7087 109.476 66.3409 108.501 65.1685 107.722C60.0882 107.332 56.3757 106.943 54.0309 106.553C52.8585 106.163 51.8815 105.968 51.1 105.968L49.3414 104.215C47.7782 103.435 46.6058 102.266 45.8243 100.707C45.0427 99.1487 44.8473 97.3951 45.2381 95.4466C45.6289 93.8879 46.4104 92.5239 47.5828 91.3549L48.169 90.7703H49.3414C49.7322 90.7703 50.5138 90.9652 51.6861 91.3549C52.8585 92.1343 53.6401 92.524 54.0309 92.524C55.2033 93.3033 56.1803 93.693 56.9619 93.693C58.525 94.0827 60.479 94.2776 62.8237 94.2776C64.7777 94.6672 66.5363 94.8621 68.0995 94.8621C69.6626 94.8621 71.6166 94.6672 73.9613 94.2776H76.8923H79.2371C79.6279 94.2776 80.214 94.6672 80.9956 95.4466C81.3864 95.4466 81.9726 96.0312 82.7542 97.2002C83.5358 98.3693 84.7082 99.9281 86.2713 101.877C89.0069 105.384 91.547 108.112 93.8918 110.06C91.9378 107.722 89.7885 104.604 87.4437 100.707C86.2713 98.759 85.2943 97.2002 84.5128 96.0312C83.7312 94.8621 83.145 94.0827 82.7542 93.693L81.5818 92.524C80.8002 92.1343 80.214 91.9394 79.8233 91.9394H68.0995C63.4099 91.9394 59.8928 91.7446 57.548 91.3549C56.3757 91.3549 54.6171 90.7703 52.2723 89.6013C51.1 88.8219 50.123 88.4322 49.3414 88.4322C48.5598 88.8219 47.9736 89.0167 47.5828 89.0167C46.8012 89.4064 46.215 89.7961 45.8243 90.1858C44.2611 91.3549 43.2841 93.1085 42.8933 95.4466V98.3693C43.2841 99.5384 43.6749 100.513 44.0657 101.292C45.2381 103.24 46.6058 104.799 48.169 105.968L50.5138 107.137C51.6861 107.527 52.6631 107.722 53.4447 107.722C54.6171 108.112 56.5711 108.306 59.3066 108.306H64.5823L64.6971 108.375C64.8772 108.329 65.0344 108.306 65.1685 108.306C65.1124 108.362 65.0363 108.434 64.94 108.522C66.1828 109.279 67.1697 109.95 67.9007 110.536L68.0995 110.06C68.0995 110.211 68.0775 110.406 68.0335 110.644C68.2836 110.85 68.501 111.045 68.6856 111.229C69.858 111.619 71.2258 112.398 72.789 113.567Z" fill="#19665E"/>
<path d="M74.5475 75.5724L73.9613 76.7414L73.3752 77.326C72.6385 77.6933 71.7283 77.7144 70.6445 77.3893C70.3823 77.4754 70.1202 77.6491 69.858 77.9105H69.2718H66.9271C66.1455 77.9105 65.5593 78.1054 65.1685 78.495H64.5823L63.4099 79.0796C62.6283 79.4693 62.0422 80.0538 61.6514 80.8332H63.4099H65.7547C66.1455 80.8332 67.3179 80.4435 69.2718 79.6641L71.0304 79.0796H71.6166C72.3982 78.6899 72.9844 78.3002 73.3752 77.9105C73.766 77.5208 74.1567 76.7414 74.5475 75.5724Z" fill="#19665E"/>
<path d="M73.9613 76.7414L74.5475 75.5724V73.8187H73.9613C73.5706 75.3775 72.9844 76.3517 72.2028 76.7414C72.2028 77.1311 71.812 77.326 71.0304 77.326C70.9018 77.326 70.7731 77.3471 70.6445 77.3893C71.7283 77.7144 72.6385 77.6933 73.3752 77.326L73.9613 76.7414Z" fill="#19665E"/>
<path d="M34.6866 80.8332C34.6866 78.8847 34.2958 77.5208 33.5143 76.7414C33.4037 76.576 33.2852 76.4105 33.159 76.2451L33.5143 79.0796L33.2125 78.879C33.5756 79.6584 33.8715 80.5046 34.1005 81.4177C34.4912 81.8074 34.6866 82.392 34.6866 83.1713V85.5095C34.6866 88.2373 35.0774 91.16 35.859 94.2776C36.2498 95.8363 36.836 97.2002 37.6176 98.3693C38.3992 100.318 39.1808 101.487 39.9624 101.877C39.5716 101.097 39.1808 99.7332 38.79 97.7848C38.3992 95.8363 38.2038 94.4724 38.2038 93.693C37.813 92.5239 37.4222 91.16 37.0314 89.6013C36.6406 88.8219 36.4452 88.0425 36.4452 87.2631L35.859 85.5095C35.4682 84.3404 35.0774 82.7816 34.6866 80.8332Z" fill="#19665E"/>
<path fill-rule="evenodd" clip-rule="evenodd" d="M67.9007 110.536C67.946 110.573 67.9903 110.608 68.0335 110.644C68.0775 110.406 68.0995 110.211 68.0995 110.06L67.9007 110.536ZM65.1685 108.306C65.1124 108.362 65.0363 108.434 64.94 108.522L64.8043 108.44L64.6971 108.375C64.8772 108.329 65.0344 108.306 65.1685 108.306Z" fill="#C3E6B8"/>
<path d="M29.9971 73.2342C29.6063 73.2342 28.2386 72.6497 25.8938 71.4806C26.2846 71.8703 27.457 72.8445 29.4109 74.4033L32.3419 77.326C32.6656 77.8102 32.9559 78.3279 33.2125 78.879L33.5143 79.0796L33.159 76.2451C32.393 75.2415 31.3391 74.2378 29.9971 73.2342Z" fill="#19665E"/>
<path d="M56.3757 114.152C58.3296 113.372 59.8928 112.593 61.0652 111.814C63.0736 110.145 64.3652 109.048 64.94 108.522L64.8043 108.44L64.6971 108.375C64.3523 108.463 63.9233 108.635 63.4099 108.891C63.0191 109.281 62.433 109.67 61.6514 110.06C61.2606 110.06 60.8698 110.255 60.479 110.645C58.525 111.424 56.9619 112.009 55.7895 112.398C55.3987 112.398 54.8125 112.593 54.0309 112.983H53.4447C52.2723 113.372 51.4907 113.762 51.1 114.152H49.9276V114.736C49.5368 114.736 49.146 114.931 48.7552 115.321H47.5828C46.8012 115.711 46.4104 116.1 46.4104 116.49H47.5828C47.9736 116.88 48.3644 117.075 48.7552 117.075C49.5368 117.075 50.5138 116.88 51.6861 116.49C52.4677 116.49 53.2493 116.1 54.0309 115.321C55.5941 114.931 56.3757 114.542 56.3757 114.152Z" fill="#19665E"/>
<path fill-rule="evenodd" clip-rule="evenodd" d="M54.0309 159.746C44.2611 148.445 38.3992 135.195 36.4452 119.997C32.9281 116.1 29.8017 109.086 27.0662 98.9539C7.91732 80.2487 -1.07092 66.6094 0.101456 58.0362C0.49225 54.9187 2.25082 52.3857 5.37716 50.4372C6.94034 49.6579 8.50351 49.463 10.0667 49.8527C11.6299 50.2424 13.193 51.996 14.7562 55.1135C17.8825 60.9589 22.1813 65.8301 27.6524 69.727C26.48 66.6094 24.3306 62.9074 21.2043 58.6208C14.5608 49.6579 11.0437 42.0589 10.6529 35.8238C10.2621 30.3681 11.6299 26.2764 14.7562 23.5485C17.101 21.6001 19.4457 21.0155 21.7905 21.7949C23.7444 22.1846 25.8938 24.5227 28.2386 28.8094C30.9741 33.8753 34.2959 38.9413 38.2038 44.0073C40.5485 47.5146 42.8933 52.7754 45.2381 59.7898C44.8473 49.6579 44.2611 43.4228 43.4795 41.0846C43.0887 39.1362 42.3071 36.6032 41.1347 33.4856C37.2268 23.3537 35.4682 16.3392 35.859 12.4423C36.2498 7.37631 38.79 3.67424 43.4795 1.33608C46.6058 -0.222681 49.3414 -0.417526 51.6861 0.751548C52.8585 1.53093 55.5941 7.18146 59.8928 17.7031C64.1915 27.8351 66.3409 33.2908 66.3409 34.0702C66.7317 35.2393 67.5133 39.9156 68.6856 48.0991C69.4672 56.6723 70.2488 63.2971 71.0304 67.9734C73.3752 54.3342 73.766 44.397 72.2028 38.162C69.858 26.4712 70.2488 17.898 73.3752 12.4423C77.6739 5.03816 82.9496 2.89485 89.2023 6.01239C91.547 7.18146 92.9148 11.2732 93.3056 18.2877C93.6964 27.6403 94.8688 35.0444 96.8227 40.5001V41.0846C96.8227 52.3857 96.2366 67.7785 95.0642 87.2631C97.4089 93.4982 98.9721 98.9539 99.7537 103.63V104.799C101.216 122.564 102.265 140.727 99.9497 159.028C99.5291 162.352 97.177 165.113 93.9589 166.045C80.386 169.978 71.8801 169.781 60.311 165.087C59.2575 164.66 58.307 164.01 57.5019 163.207L54.0309 159.746ZM95.6504 104.215C94.478 113.178 99.9883 134.132 95.6504 152.731C94.0436 159.621 84.254 164.154 76.5491 164.422C76.0683 164.439 75.5957 164.439 75.1337 164.422L58.7204 157.992L58.1342 157.408C53.4447 152.731 49.7322 147.081 46.9966 140.456C44.2611 133.442 42.5025 128.376 41.7209 125.258C41.3301 121.751 41.1347 119.608 41.1347 118.828V118.244L39.9624 117.659C36.4452 114.152 33.3189 107.332 30.5833 97.2002V96.6157L29.9971 96.0312C11.6299 78.495 3.0324 66.0249 4.20478 58.6208C4.59558 57.062 5.76796 55.6981 7.72192 54.529C8.11271 54.1393 8.50351 53.9445 8.8943 53.9445L10.6529 56.8672C15.3424 65.0507 21.7905 71.6754 29.9971 76.7414L33.2125 78.879C32.9559 78.3279 32.6656 77.8102 32.3419 77.326L29.4109 74.4033C27.457 72.8445 26.2846 71.8703 25.8938 71.4806C28.2386 72.6497 29.6063 73.2342 29.9971 73.2342C31.3391 74.2378 32.393 75.2415 33.159 76.2451L32.9281 74.4033C32.5373 68.9476 29.8017 62.9074 24.7214 56.2826C18.4687 47.7094 15.147 40.8898 14.7562 35.8238C14.3654 31.5372 15.3424 28.6145 17.6871 27.0557C18.8595 25.8867 19.8365 25.497 20.6181 25.8867C21.3997 26.2764 22.5721 27.8351 24.1352 30.563C27.2616 36.0186 30.7787 41.4743 34.6866 46.93C37.813 51.2166 40.9393 59.4002 44.0657 71.4806C45.2381 74.5981 46.0196 76.3517 46.4104 76.7414L49.9276 79.6641V74.9878C49.9276 55.8929 49.146 44.0073 47.5828 39.331C47.192 37.3826 46.4104 34.8496 45.2381 31.732C41.3301 22.3794 39.5716 16.1444 39.9624 13.0268C40.3531 9.51962 42.1117 6.98662 45.2381 5.42785C46.8012 4.25878 48.169 3.86909 49.3414 4.25878C52.8585 10.4938 57.1572 20.8207 62.2376 35.2393C62.6283 36.4083 63.2145 40.6949 63.9961 48.0991C66.3409 66.4146 68.4902 76.1569 70.4442 77.326C70.5116 77.3484 70.5784 77.3695 70.6445 77.3893C70.7731 77.3471 70.9018 77.326 71.0304 77.326C71.812 77.326 72.2028 77.1311 72.2028 76.7414C72.9844 76.3517 73.5706 75.3775 73.9613 73.8187H74.5475V75.5724C77.6739 58.4259 78.2601 45.5661 76.3061 36.9929C74.3521 26.4712 74.5475 18.8722 76.8923 14.1959C80.0186 9.12992 83.5358 7.57116 87.4437 9.51961C88.2253 9.9093 88.6161 13.0268 88.6161 18.8722C89.0069 28.2248 90.3747 35.8238 92.7194 41.6692C92.3286 57.6465 91.7424 73.0394 90.9609 87.8476V88.4322C92.9148 93.8879 94.478 99.1487 95.6504 104.215Z" fill="#19665E"/>
</g>
<g filter="url(#filter1_d_2073_16294)">
<path d="M404.414 163.838H400.31L380.38 164.422L363.967 165.007L359.277 165.591L359.113 168.584L404.414 167.586V163.838Z" fill="#19665E"/>
<path d="M400.31 163.838C400.31 161.889 400.115 156.044 399.724 146.301C399.333 127.206 399.724 113.178 400.896 104.215C399.724 99.1487 398.161 93.8879 396.207 88.4322V87.8476C396.989 73.0394 397.575 57.6465 397.966 41.6692C395.621 35.8238 394.253 28.2248 393.862 18.8722C393.862 13.0268 393.471 9.9093 392.69 9.51961C388.782 7.57116 385.265 9.12992 382.138 14.1959C379.794 18.8722 379.598 26.4712 381.552 36.9929C383.506 45.5661 382.92 58.4259 379.794 75.5723C379.403 76.7414 379.012 77.5208 378.621 77.9105C378.23 78.3002 377.644 78.6899 376.863 79.0796H376.276L374.518 79.6641C372.564 80.4435 371.392 80.8332 371.001 80.8332H368.656H366.897C367.288 80.0538 367.874 79.4693 368.656 79.0796L369.828 78.495H370.415C370.805 78.1053 371.392 77.9105 372.173 77.9105H374.518H375.104C375.366 77.6491 375.628 77.4754 375.891 77.3893C375.824 77.3695 375.758 77.3484 375.69 77.326C373.736 76.1569 371.587 66.4146 369.242 48.0991C368.461 40.6949 367.874 36.4083 367.484 35.2393C362.403 20.8207 358.105 10.4938 354.587 4.25878C353.415 3.86909 352.047 4.25878 350.484 5.42785C347.358 6.98662 345.599 9.51962 345.208 13.0268C344.818 16.1444 346.576 22.3794 350.484 31.732C351.657 34.8496 352.438 37.3826 352.829 39.331C354.392 44.0073 355.174 55.8929 355.174 74.9878V79.6641L351.657 76.7414C351.266 76.3517 350.484 74.5981 349.312 71.4806C346.185 59.4001 343.059 51.2166 339.933 46.93C336.025 41.4743 332.508 36.0186 329.381 30.563C327.818 27.8351 326.646 26.2764 325.864 25.8867C325.083 25.497 324.106 25.8867 322.933 27.0557C320.588 28.6145 319.611 31.5372 320.002 35.8238C320.393 40.8898 323.715 47.7094 329.968 56.2826C335.048 62.9074 337.783 68.9476 338.174 74.4033L338.405 76.2451C338.531 76.4105 338.65 76.576 338.76 76.7414C339.542 77.5208 339.933 78.8847 339.933 80.8332C340.324 82.7816 340.714 84.3404 341.105 85.5095L341.691 87.2631C341.691 88.0425 341.887 88.8219 342.277 89.6013C342.668 91.16 343.059 92.5239 343.45 93.693C343.45 94.4724 343.645 95.8363 344.036 97.7848C344.427 99.7332 344.818 101.097 345.208 101.877C344.427 101.487 343.645 100.318 342.864 98.3693C342.082 97.2002 341.496 95.8363 341.105 94.2775C340.324 91.16 339.933 88.2373 339.933 85.5095V83.1713C339.933 82.392 339.737 81.8074 339.347 81.4177C339.118 80.5046 338.822 79.6584 338.459 78.879L335.243 76.7414C327.037 71.6754 320.588 65.0507 315.899 56.8672L314.14 53.9445C313.75 53.9445 313.359 54.1393 312.968 54.529C311.014 55.6981 309.842 57.062 309.451 58.6208C308.278 66.0249 316.876 78.495 335.243 96.0312L335.829 96.6157V97.2002C338.565 107.332 341.691 114.152 345.208 117.659L346.381 118.244V118.828C346.381 119.608 346.576 121.751 346.967 125.258C347.749 128.376 349.507 133.442 352.243 140.456C354.978 147.081 358.691 152.731 363.38 157.408L363.967 157.992V165.007L380.38 164.422C379.989 164.032 379.598 163.448 379.207 162.668V159.746L378.621 155.654L374.518 151.562C372.955 149.614 371.587 147.86 370.415 146.301C369.242 144.743 368.265 142.794 367.484 140.456C366.702 138.508 366.311 136.364 366.311 134.026C366.311 130.909 367.093 126.817 368.656 121.751C369.788 118.74 371.285 115.002 373.147 110.536C372.416 109.95 371.429 109.279 370.186 108.522C369.611 109.048 368.32 110.145 366.311 111.814C365.139 112.593 363.576 113.372 361.622 114.152C361.622 114.542 360.84 114.931 359.277 115.321C358.495 116.1 357.714 116.49 356.932 116.49C355.76 116.88 354.783 117.075 354.001 117.075C353.61 117.075 353.22 116.88 352.829 116.49H351.657C351.657 116.1 352.047 115.711 352.829 115.321H354.001C354.392 114.931 354.783 114.736 355.174 114.736V114.152H356.346C356.737 113.762 357.518 113.372 358.691 112.983H359.277C360.059 112.593 360.645 112.398 361.036 112.398C362.208 112.009 363.771 111.424 365.725 110.645C366.116 110.255 366.507 110.06 366.897 110.06C367.679 109.67 368.265 109.281 368.656 108.891C369.169 108.635 369.598 108.463 369.943 108.375C369.905 108.352 369.867 108.329 369.828 108.306H364.553C361.817 108.306 359.863 108.112 358.691 107.722C357.909 107.722 356.932 107.527 355.76 107.137L353.415 105.968C351.852 104.799 350.484 103.24 349.312 101.292C348.921 100.513 348.53 99.5384 348.139 98.3693V95.4466C348.53 93.1085 349.507 91.3549 351.07 90.1858C351.461 89.7961 352.047 89.4064 352.829 89.0167C353.22 89.0167 353.806 88.8219 354.587 88.4322C355.369 88.4322 356.346 88.8219 357.518 89.6013C359.863 90.7703 361.622 91.3549 362.794 91.3549C365.139 91.7446 368.656 91.9394 373.346 91.9394H385.069C385.46 91.9394 386.046 92.1343 386.828 92.5239L388 93.693C388.391 94.0827 388.977 94.8621 389.759 96.0312C390.54 97.2002 391.517 98.759 392.69 100.707C395.035 104.604 397.184 107.722 399.138 110.06C396.793 108.112 394.253 105.384 391.517 101.877C389.954 99.9281 388.782 98.3693 388 97.2002C387.219 96.0312 386.633 95.4466 386.242 95.4466C385.46 94.6672 384.874 94.2775 384.483 94.2775H382.138H379.207C376.863 94.6672 374.909 94.8621 373.346 94.8621C371.782 94.8621 370.024 94.6672 368.07 94.2775C365.725 94.2775 363.771 94.0827 362.208 93.693C361.426 93.693 360.449 93.3033 359.277 92.5239C358.886 92.5239 358.105 92.1342 356.932 91.3549C355.76 90.9652 354.978 90.7703 354.587 90.7703H353.415L352.829 91.3549C351.657 92.5239 350.875 93.8879 350.484 95.4466C350.093 97.3951 350.289 99.1487 351.07 100.707C351.852 102.266 353.024 103.435 354.587 104.215L356.346 105.968C357.128 105.968 358.105 106.163 359.277 106.553C361.622 106.943 365.334 107.332 370.415 107.722C371.587 108.501 372.955 109.476 374.518 110.645C376.081 111.814 377.449 112.788 378.621 113.567C381.357 115.516 383.702 117.659 385.656 119.997L385.069 120.582C383.506 118.244 381.161 115.905 378.035 113.567C376.472 112.398 375.104 111.619 373.932 111.229C373.747 111.045 373.53 110.85 373.28 110.644C373.097 111.638 372.532 113.391 371.587 115.905C370.805 118.633 370.219 120.777 369.828 122.335C368.265 127.401 367.679 131.298 368.07 134.026C368.07 136.364 368.461 138.313 369.242 139.871C370.024 141.43 371.196 143.184 372.759 145.132C374.323 147.081 375.495 148.64 376.276 149.809C376.667 150.588 377.253 151.562 378.035 152.731C379.207 153.9 379.989 154.485 380.38 154.485V159.746V164.422L400.31 163.838Z" fill="#C3E6B8"/>
<path fill-rule="evenodd" clip-rule="evenodd" d="M359.277 162.668V165.591L363.967 165.007V157.992L363.38 157.408C358.691 152.731 354.978 147.081 352.243 140.456C349.507 133.442 347.749 128.376 346.967 125.258C346.576 121.751 346.381 119.608 346.381 118.828V118.244L345.208 117.659C341.691 114.152 338.565 107.332 335.829 97.2002V96.6157L335.243 96.0312C316.876 78.495 308.278 66.0249 309.451 58.6208C309.842 57.062 311.014 55.6981 312.968 54.529C313.359 54.1393 313.75 53.9445 314.14 53.9445L315.899 56.8672C320.588 65.0507 327.037 71.6754 335.243 76.7414L338.459 78.879C338.822 79.6584 339.118 80.5046 339.347 81.4177C339.737 81.8074 339.933 82.392 339.933 83.1713V85.5095C339.933 88.2373 340.324 91.16 341.105 94.2775C341.496 95.8363 342.082 97.2002 342.864 98.3693C343.645 100.318 344.427 101.487 345.208 101.877C344.818 101.097 344.427 99.7332 344.036 97.7848C343.645 95.8363 343.45 94.4724 343.45 93.693C343.059 92.5239 342.668 91.16 342.277 89.6013C341.887 88.8219 341.691 88.0425 341.691 87.2631L341.105 85.5095C340.714 84.3404 340.324 82.7816 339.933 80.8332C339.933 78.8847 339.542 77.5208 338.76 76.7414C338.65 76.576 338.531 76.4105 338.405 76.2451L338.174 74.4033C337.783 68.9476 335.048 62.9074 329.968 56.2826C323.715 47.7094 320.393 40.8898 320.002 35.8238C319.611 31.5372 320.588 28.6145 322.933 27.0557C324.106 25.8867 325.083 25.497 325.864 25.8867C326.646 26.2764 327.818 27.8351 329.381 30.563C332.508 36.0186 336.025 41.4743 339.933 46.93C343.059 51.2166 346.185 59.4001 349.312 71.4806C350.484 74.5981 351.266 76.3517 351.657 76.7414L355.174 79.6641V74.9878C355.174 55.8929 354.392 44.0073 352.829 39.331C352.438 37.3826 351.657 34.8496 350.484 31.732C346.576 22.3794 344.818 16.1444 345.208 13.0268C345.599 9.51962 347.358 6.98662 350.484 5.42785C352.047 4.25878 353.415 3.86909 354.587 4.25878C358.105 10.4938 362.403 20.8207 367.484 35.2393C367.874 36.4083 368.461 40.6949 369.242 48.0991C371.587 66.4146 373.736 76.1569 375.69 77.326C375.758 77.3484 375.824 77.3695 375.891 77.3893C375.628 77.4754 375.366 77.6491 375.104 77.9105H374.518H372.173C371.392 77.9105 370.805 78.1053 370.415 78.495H369.828L368.656 79.0796C367.874 79.4693 367.288 80.0538 366.897 80.8332H368.656H371.001C371.392 80.8332 372.564 80.4435 374.518 79.6641L376.276 79.0796H376.863C377.644 78.6899 378.23 78.3002 378.621 77.9105C379.012 77.5208 379.403 76.7414 379.794 75.5723C382.92 58.4259 383.506 45.5661 381.552 36.9929C379.598 26.4712 379.794 18.8722 382.138 14.1959C385.265 9.12992 388.782 7.57116 392.69 9.51961C393.471 9.9093 393.862 13.0268 393.862 18.8722C394.253 28.2248 395.621 35.8238 397.966 41.6692C397.575 57.6465 396.989 73.0394 396.207 87.8476V88.4322C398.161 93.8879 399.724 99.1487 400.896 104.215C399.724 113.178 399.333 127.206 399.724 146.301C400.115 156.044 400.31 161.889 400.31 163.838H404.414V146.301C404.023 127.596 404.218 113.762 405 104.799V103.63C404.218 98.9539 402.655 93.4982 400.31 87.2631C401.483 67.7785 402.069 52.3857 402.069 41.0846V40.5001C400.115 35.0444 398.942 27.6403 398.552 18.2877C398.161 11.2732 396.793 7.18146 394.448 6.01239C388.196 2.89485 382.92 5.03816 378.621 12.4423C375.495 17.898 375.104 26.4712 377.449 38.162C379.012 44.397 378.621 54.3342 376.276 67.9734C375.495 63.2971 374.713 56.6723 373.932 48.0991C372.759 39.9156 371.978 35.2393 371.587 34.0702C371.587 33.2908 369.438 27.8351 365.139 17.7031C360.84 7.18146 358.105 1.53093 356.932 0.751547C354.587 -0.417526 351.852 -0.222681 348.726 1.33608C344.036 3.67424 341.496 7.37631 341.105 12.4423C340.714 16.3392 342.473 23.3537 346.381 33.4856C347.553 36.6032 348.335 39.1362 348.726 41.0846C349.507 43.4228 350.093 49.6579 350.484 59.7898C348.139 52.7754 345.795 47.5145 343.45 44.0073C339.542 38.9413 336.22 33.8753 333.485 28.8094C331.14 24.5227 328.991 22.1846 327.037 21.7949C324.692 21.0155 322.347 21.6001 320.002 23.5485C316.876 26.2764 315.508 30.3681 315.899 35.8238C316.29 42.0589 319.807 49.6579 326.45 58.6208C329.577 62.9074 331.726 66.6094 332.898 69.727C327.427 65.8301 323.129 60.9589 320.002 55.1135C318.439 51.996 316.876 50.2424 315.313 49.8527C313.75 49.463 312.186 49.6579 310.623 50.4372C307.497 52.3857 305.738 54.9187 305.348 58.0362C304.175 66.6094 313.163 80.2487 332.312 98.9539C335.048 109.086 338.174 116.1 341.691 119.997C343.645 135.195 349.507 148.445 359.277 159.746V162.668ZM379.207 73.8187C378.817 75.3775 378.23 76.3517 377.449 76.7414C377.449 77.1311 377.058 77.326 376.276 77.326C376.148 77.326 376.019 77.3471 375.891 77.3893C376.974 77.7144 377.885 77.6933 378.621 77.326L379.207 76.7414L379.794 75.5723V73.8187H379.207ZM378.035 113.567C381.161 115.905 383.506 118.244 385.069 120.582L385.656 119.997C383.702 117.659 381.357 115.516 378.621 113.567C377.449 112.788 376.081 111.814 374.518 110.645C372.955 109.476 371.587 108.501 370.415 107.722C365.334 107.332 361.622 106.943 359.277 106.553C358.105 106.163 357.128 105.968 356.346 105.968L354.587 104.215C353.024 103.435 351.852 102.266 351.07 100.707C350.289 99.1487 350.093 97.3951 350.484 95.4466C350.875 93.8879 351.657 92.5239 352.829 91.3549L353.415 90.7703H354.587C354.978 90.7703 355.76 90.9652 356.932 91.3549C358.105 92.1342 358.886 92.5239 359.277 92.5239C360.449 93.3033 361.426 93.693 362.208 93.693C363.771 94.0827 365.725 94.2775 368.07 94.2775C370.024 94.6672 371.782 94.8621 373.346 94.8621C374.909 94.8621 376.863 94.6672 379.207 94.2775H382.138H384.483C384.874 94.2775 385.46 94.6672 386.242 95.4466C386.633 95.4466 387.219 96.0312 388 97.2002C388.782 98.3693 389.954 99.9281 391.517 101.877C394.253 105.384 396.793 108.112 399.138 110.06C397.184 107.722 395.035 104.604 392.69 100.707C391.517 98.759 390.54 97.2002 389.759 96.0312C388.977 94.8621 388.391 94.0827 388 93.693L386.828 92.5239C386.046 92.1343 385.46 91.9394 385.069 91.9394H373.346C368.656 91.9394 365.139 91.7446 362.794 91.3549C361.622 91.3549 359.863 90.7703 357.518 89.6013C356.346 88.8219 355.369 88.4322 354.587 88.4322C353.806 88.8219 353.22 89.0167 352.829 89.0167C352.047 89.4064 351.461 89.7961 351.07 90.1858C349.507 91.3549 348.53 93.1085 348.139 95.4466V98.3693C348.53 99.5384 348.921 100.513 349.312 101.292C350.484 103.24 351.852 104.799 353.415 105.968L355.76 107.137C356.932 107.527 357.909 107.722 358.691 107.722C359.863 108.112 361.817 108.306 364.553 108.306H369.828L369.943 108.375C369.598 108.463 369.169 108.635 368.656 108.891C368.265 109.281 367.679 109.67 366.897 110.06C366.507 110.06 366.116 110.255 365.725 110.645C363.771 111.424 362.208 112.009 361.036 112.398C360.645 112.398 360.059 112.593 359.277 112.983H358.691C357.518 113.372 356.737 113.762 356.346 114.152H355.174V114.736C354.783 114.736 354.392 114.931 354.001 115.321H352.829C352.047 115.711 351.657 116.1 351.657 116.49H352.829C353.22 116.88 353.61 117.075 354.001 117.075C354.783 117.075 355.76 116.88 356.932 116.49C357.714 116.49 358.495 116.1 359.277 115.321C360.84 114.931 361.622 114.542 361.622 114.152C363.576 113.372 365.139 112.593 366.311 111.814C368.32 110.145 369.611 109.048 370.186 108.522C371.429 109.279 372.416 109.95 373.147 110.536C371.285 115.002 369.788 118.74 368.656 121.751C367.093 126.817 366.311 130.909 366.311 134.026C366.311 136.364 366.702 138.508 367.484 140.456C368.265 142.794 369.242 144.743 370.415 146.301C371.587 147.86 372.955 149.614 374.518 151.562L378.621 155.654L379.207 159.746V162.668C379.598 163.448 379.989 164.032 380.38 164.422V159.746V154.485C379.989 154.485 379.207 153.9 378.035 152.731C377.253 151.562 376.667 150.588 376.276 149.809C375.495 148.64 374.323 147.081 372.759 145.132C371.196 143.184 370.024 141.43 369.242 139.871C368.461 138.313 368.07 136.364 368.07 134.026C367.679 131.298 368.265 127.401 369.828 122.335C370.219 120.777 370.805 118.633 371.587 115.905C372.532 113.391 373.097 111.638 373.28 110.644C373.53 110.85 373.747 111.045 373.932 111.229C375.104 111.619 376.472 112.398 378.035 113.567Z" fill="#19665E"/>
<path d="M379.207 76.7414L379.794 75.5723V73.8187H379.207C378.817 75.3775 378.23 76.3517 377.449 76.7414C377.449 77.1311 377.058 77.326 376.276 77.326C376.148 77.326 376.019 77.3471 375.891 77.3893C376.974 77.7144 377.885 77.6933 378.621 77.326L379.207 76.7414Z" fill="#19665E"/>
</g>
<g filter="url(#filter2_d_2073_16294)">
<path d="M197.383 105.766C195.447 105.766 193.51 105.375 191.574 104.591C186.927 102.241 184.216 99.3028 183.442 95.7772C182.667 90.293 181.118 86.9634 178.795 85.7882L176.142 84.7149C175.126 85.0011 174.267 84.9671 173.567 84.613C172.793 84.613 172.018 84.2213 171.244 83.4378C170.856 83.0461 170.566 82.6544 170.372 82.2626H169.501H168.92H167.758C167.371 82.2626 166.79 82.8502 166.016 84.0254C165.628 84.4171 166.016 85.2006 167.177 86.3758C170.663 91.4682 172.793 97.7358 173.567 105.179C173.567 106.746 174.535 107.921 176.471 108.704V109.292C182.667 113.209 186.927 116.539 189.251 119.281C191.961 121.631 194.478 125.157 196.802 129.857C200.674 138.084 204.741 143.568 209 146.31C215.196 150.227 219.843 152.773 222.941 153.949H223.522C227.782 155.516 229.718 160.412 229.331 168.638L261.279 171.576C260.504 165.309 257.794 155.907 253.147 143.372C250.049 134.754 247.919 128.095 246.757 123.394C244.821 113.993 243.853 106.941 243.853 102.241C244.141 94.648 243.354 86.4022 241.49 77.5033L239.206 74.0364L233.978 67.5729C233.203 66.7894 232.235 65.6142 231.073 64.0473C230.299 62.4804 229.524 61.3053 228.75 60.5218C226.814 58.1714 225.071 56.0169 223.522 54.0583C223.135 53.6666 222.167 52.8831 220.618 51.7079L217.132 48.1824L214.809 44.6569L213.066 43.4817H212.486V42.3065L211.905 41.7189L209.581 40.5437L188.67 29.9671C185.572 29.1837 181.312 27.225 175.891 24.0912C172.405 22.5243 170.469 21.7408 170.082 21.7408C167.758 22.916 166.597 24.0912 166.597 25.2664C166.209 27.225 167.371 29.3795 170.082 31.7299C173.18 34.0802 176.278 35.843 179.376 37.0182C190.219 40.9355 196.996 44.8527 199.706 48.77C200.029 49.0964 200.083 49.5589 199.868 50.1574L201.449 49.3576C201.836 49.3576 202.223 49.1617 202.611 48.77H204.353V49.3576H204.934V49.9452C205.321 49.9452 205.709 50.141 206.096 50.5328L211.324 55.8211L217.713 62.2846C220.037 64.2432 222.554 66.2018 225.265 68.1605C226.039 68.9439 228.75 70.5108 233.397 72.8612C235.72 74.4281 237.076 75.4074 237.463 75.7991L239.787 76.9743V77.5619H240.367V78.1495V78.7371C240.755 79.1288 240.948 79.5205 240.948 79.9123V85.7882C241.336 87.7468 241.529 89.1179 241.529 89.9013V99.3028L239.206 89.9013C238.818 87.9427 238.625 86.3758 238.625 85.2006C238.625 84.0254 238.431 82.4585 238.044 80.4999V79.9123V79.3247V78.7371C237.657 78.7371 237.076 78.5412 236.301 78.1495C235.527 77.3661 234.171 76.3867 232.235 75.2115C230.299 73.6446 227.782 71.686 224.684 69.3356C224.297 68.9439 223.522 68.3563 222.36 67.5729L221.199 66.3977L219.456 64.6349C218.681 64.2432 218.101 63.8515 217.713 63.4597L210.162 57.5838L206.677 54.0583L204.934 52.2955H204.353V51.7079C204.353 51.3162 204.16 51.1204 203.772 51.1204H203.192H202.03L199.706 52.2955C198.659 52.7194 197.725 53.0286 196.904 53.2231C196.693 53.3057 196.466 53.3882 196.221 53.4707C195.447 53.8624 194.866 54.2542 194.478 54.6459C184.41 59.7383 178.989 63.068 178.214 64.6349C177.827 69.3357 175.503 74.8198 171.244 81.0875L172.405 82.2626C173.18 82.6544 174.342 82.6544 175.891 82.2626C176.665 82.2626 177.526 82.1756 178.472 82.0015L188.089 72.2736H188.67C191.768 71.8819 194.478 70.9026 196.802 69.3356L198.545 67.5729L199.706 69.9232C200.868 71.4901 204.547 74.2322 210.743 78.1495L211.324 78.7371C214.809 86.5716 216.939 91.0765 217.713 92.2517L219.456 94.0144L217.132 95.1896V95.7772L214.809 96.9524C210.162 100.478 206.096 103.024 202.611 104.591C201.062 105.375 199.319 105.766 197.383 105.766Z" fill="#C3E6B8"/>
<path d="M226.136 43.1879L224.103 40.5437C222.167 38.1934 219.069 33.1009 214.809 25.2664C210.937 17.4318 208.419 11.3601 207.258 7.05109C206.87 5.8759 206.096 5.09244 204.934 4.70072C203.772 4.70072 202.611 5.09244 201.449 5.8759C200.287 7.44281 199.9 9.00972 200.287 10.5766C201.062 16.4525 203.192 21.9367 206.677 27.0291C209 30.9464 210.743 34.472 211.905 37.6058L212.516 40.0788C212.73 40.2338 212.913 40.3887 213.066 40.5437L213.647 41.1313C214.035 41.1313 214.228 41.3272 214.228 41.7189V42.3065H215.39C215.777 42.6982 215.971 43.09 215.971 43.4817L218.875 46.4196C219.65 47.2031 220.618 48.5741 221.779 50.5328C222.941 52.0997 223.716 53.079 224.103 53.4707C225.652 55.4293 227.588 57.5838 229.912 59.9342C230.299 60.3259 231.073 61.3053 232.235 62.8722C232.407 63.0023 232.574 63.1301 232.736 63.2555C232.001 61.3784 231.447 59.6837 231.073 58.1714C230.686 56.9963 230.299 55.4293 229.912 53.4707C229.524 51.1204 229.331 49.3576 229.331 48.1824V48.77C228.944 48.3783 228.556 47.5948 228.169 46.4196C227.395 45.2444 226.814 44.461 226.426 44.0693C226.426 43.8734 226.33 43.5796 226.136 43.1879Z" fill="#C3E6B8"/>
<path d="M239.206 68.1605C236.495 57.1921 235.527 48.5741 236.301 42.3065C233.978 37.2141 233.01 32.7092 233.397 28.7919C233.784 26.8333 233.784 25.6581 233.397 25.2664L232.816 24.6788C231.267 24.2871 229.912 25.0705 228.75 27.0291C227.588 28.5961 227.395 32.5133 228.169 38.781V42.8941C228.944 44.0693 229.524 44.8527 229.912 45.2444C230.686 46.0279 231.267 46.8114 231.654 47.5948V48.1824V49.3576V50.5328V53.4707C232.042 53.8624 232.235 54.6459 232.235 55.8211C232.622 56.9963 232.816 57.7797 232.816 58.1714C233.203 60.1301 233.591 61.697 233.978 62.8722V64.2458C234.689 64.8334 235.27 65.3548 235.72 65.8101C237.503 68.2146 238.944 70.0426 240.043 71.294C239.777 70.2578 239.498 69.2133 239.206 68.1605Z" fill="#C3E6B8"/>
<path fill-rule="evenodd" clip-rule="evenodd" d="M183.442 95.7772C184.216 99.3028 186.927 102.241 191.574 104.591C193.51 105.375 195.447 105.766 197.383 105.766C199.319 105.766 201.062 105.375 202.611 104.591C206.096 103.024 210.162 100.478 214.809 96.9524L217.132 95.7772V95.1896L219.456 94.0144L217.713 92.2517C216.939 91.0765 214.809 86.5716 211.324 78.7371L210.743 78.1495C204.547 74.2322 200.868 71.4901 199.706 69.9232L198.545 67.5729L196.802 69.3356C194.478 70.9026 191.768 71.8819 188.67 72.2736H188.089L178.472 82.0015C177.526 82.1756 176.665 82.2626 175.891 82.2626C174.342 82.6544 173.18 82.6544 172.405 82.2626L171.244 81.0875C175.503 74.8198 177.827 69.3357 178.214 64.6349C178.989 63.068 184.41 59.7383 194.478 54.6459C194.866 54.2542 195.447 53.8624 196.221 53.4707C196.466 53.3882 196.693 53.3057 196.904 53.2231C197.725 53.0286 198.659 52.7194 199.706 52.2955L202.03 51.1204H203.192H203.772C204.16 51.1204 204.353 51.3162 204.353 51.7079V52.2955H204.934L206.677 54.0583L210.162 57.5838L217.713 63.4597C218.101 63.8515 218.681 64.2432 219.456 64.6349L221.199 66.3977L222.36 67.5729C223.522 68.3563 224.297 68.9439 224.684 69.3356C227.782 71.686 230.299 73.6446 232.235 75.2115C234.171 76.3867 235.527 77.3661 236.301 78.1495C237.076 78.5412 237.657 78.7371 238.044 78.7371V79.3247V79.9123V80.4999C238.431 82.4585 238.625 84.0254 238.625 85.2006C238.625 86.3758 238.818 87.9427 239.206 89.9013L241.529 99.3028V89.9013C241.529 89.1179 241.336 87.7468 240.948 85.7882V79.9123C240.948 79.5205 240.755 79.1288 240.367 78.7371V78.1495V77.5619H239.787V76.9743L237.463 75.7991C237.076 75.4074 235.72 74.4281 233.397 72.8612C228.75 70.5108 226.039 68.9439 225.265 68.1605C222.554 66.2018 220.037 64.2432 217.713 62.2846L211.324 55.8211L206.096 50.5328C205.709 50.141 205.321 49.9452 204.934 49.9452V49.3576H204.353V48.77H202.611C202.223 49.1617 201.836 49.3576 201.449 49.3576L199.868 50.1574C200.083 49.5589 200.029 49.0964 199.706 48.77C196.996 44.8527 190.219 40.9355 179.376 37.0182C176.278 35.843 173.18 34.0802 170.082 31.7299C167.371 29.3795 166.209 27.225 166.597 25.2664C166.597 24.0912 167.758 22.916 170.082 21.7408C170.469 21.7408 172.405 22.5243 175.891 24.0912C181.312 27.225 185.572 29.1837 188.67 29.9671L209.581 40.5437L211.905 41.7189L212.486 42.3065V43.4817H213.066L214.809 44.6569L217.132 48.1824L220.618 51.7079C222.167 52.8831 223.135 53.6666 223.522 54.0583C225.071 56.0169 226.814 58.1714 228.75 60.5218C229.524 61.3053 230.299 62.4804 231.073 64.0473C232.235 65.6142 233.203 66.7894 233.978 67.5729L239.206 74.0364L241.49 77.5033C243.354 86.4022 244.141 94.648 243.853 102.241C243.853 106.941 244.821 113.993 246.757 123.394C247.919 128.095 250.049 134.754 253.147 143.372C257.794 155.907 260.504 165.309 261.279 171.576L265.345 170.989C264.57 164.329 261.86 154.536 257.213 141.609C254.115 133.383 251.985 127.115 250.823 122.806V122.219C248.887 113.601 247.919 106.941 247.919 102.241C248.306 91.6641 246.757 79.9123 243.272 66.9853C240.948 56.8004 239.98 48.77 240.367 42.8941V41.1313C238.431 36.4306 237.657 32.3175 238.044 28.7919C238.044 26.0498 237.657 24.0912 236.882 22.916C236.108 22.1326 235.333 21.545 234.559 21.1533C230.686 19.1946 227.395 20.3698 224.684 24.6788C224.297 26.2457 223.909 28.5961 223.522 31.7299C216.552 20.3698 212.486 11.7518 211.324 5.8759C209.775 1.95863 207.839 0 205.515 0C202.804 0 200.481 1.17518 198.545 3.52554C196.221 5.48418 195.253 8.0304 195.64 11.1642C196.415 17.4318 198.738 23.5036 202.611 29.3795C203.772 30.9464 204.741 32.3175 205.515 33.4926L190.412 25.854H189.831C187.121 25.4622 183.055 23.6995 177.633 20.5657C172.599 17.8236 169.307 16.8443 167.758 17.6277C164.273 19.5863 162.337 21.9367 161.95 24.6788C161.562 28.2043 163.111 31.534 166.597 34.6678C170.469 37.8016 174.148 39.9561 177.633 41.1313C184.991 43.8734 190.606 46.8114 194.478 49.9452C193.704 50.3369 192.929 50.5328 192.155 50.5328C180.538 56.8004 174.535 61.3053 174.148 64.0473C173.761 67.5729 171.824 72.2736 168.339 78.1495H166.016C164.854 78.933 163.692 80.1081 162.53 81.6751C160.981 84.0254 161.369 86.5716 163.692 89.3137C166.79 93.6227 168.726 99.1069 169.501 105.766C169.501 108.508 171.05 110.663 174.148 112.23V112.817C179.957 116.735 184.023 119.868 186.346 122.219C188.67 124.569 190.8 127.703 192.736 131.62C196.996 140.63 201.643 146.898 206.677 150.423C213.647 154.34 218.681 156.887 221.779 158.062C224.103 158.845 225.071 162.371 224.684 168.638H229.331C229.718 160.412 227.782 155.516 223.522 153.949H222.941C219.843 152.773 215.196 150.227 209 146.31C204.741 143.568 200.674 138.084 196.802 129.857C194.478 125.157 191.961 121.631 189.251 119.281C186.927 116.539 182.667 113.209 176.471 109.292V108.704C174.535 107.921 173.567 106.746 173.567 105.179C172.793 97.7358 170.663 91.4682 167.177 86.3758C166.016 85.2006 165.628 84.4171 166.016 84.0254C166.79 82.8502 167.371 82.2626 167.758 82.2626H168.92H169.501H170.372C170.566 82.6544 170.856 83.0461 171.244 83.4378C172.018 84.2213 172.793 84.613 173.567 84.613C174.267 84.9671 175.126 85.0011 176.142 84.7149L178.795 85.7882C181.118 86.9634 182.667 90.293 183.442 95.7772ZM240.043 71.294C239.777 70.2578 239.498 69.2133 239.206 68.1605C236.495 57.1921 235.527 48.5741 236.301 42.3065C233.978 37.2141 233.01 32.7092 233.397 28.7919C233.784 26.8333 233.784 25.6581 233.397 25.2664L232.816 24.6788C231.267 24.2871 229.912 25.0705 228.75 27.0291C227.588 28.5961 227.395 32.5133 228.169 38.781V42.8941C228.944 44.0693 229.524 44.8527 229.912 45.2444C230.686 46.0279 231.267 46.8114 231.654 47.5948V48.1824V49.3576V50.5328V53.4707C232.042 53.8624 232.235 54.6459 232.235 55.8211C232.622 56.9963 232.816 57.7797 232.816 58.1714C233.203 60.1301 233.591 61.697 233.978 62.8722V64.2458C234.689 64.8334 235.27 65.3548 235.72 65.8101C237.503 68.2146 238.944 70.0426 240.043 71.294ZM232.736 63.2555C232.001 61.3784 231.447 59.6837 231.073 58.1714C230.686 56.9963 230.299 55.4293 229.912 53.4707C229.524 51.1204 229.331 49.3576 229.331 48.1824V48.77C228.944 48.3783 228.556 47.5948 228.169 46.4196C227.395 45.2444 226.814 44.461 226.426 44.0693C226.426 43.8734 226.33 43.5796 226.136 43.1879L224.103 40.5437C222.167 38.1934 219.069 33.1009 214.809 25.2664C210.937 17.4318 208.419 11.3601 207.258 7.05109C206.87 5.8759 206.096 5.09244 204.934 4.70072C203.772 4.70072 202.611 5.09244 201.449 5.8759C200.287 7.44281 199.9 9.00972 200.287 10.5766C201.062 16.4525 203.192 21.9367 206.677 27.0291C209 30.9464 210.743 34.472 211.905 37.6058L212.516 40.0788C212.73 40.2338 212.913 40.3887 213.066 40.5437L213.647 41.1313C214.035 41.1313 214.228 41.3272 214.228 41.7189V42.3065H215.39C215.777 42.6982 215.971 43.09 215.971 43.4817L218.875 46.4196C219.65 47.2031 220.618 48.5741 221.779 50.5328C222.941 52.0997 223.716 53.079 224.103 53.4707C225.652 55.4293 227.588 57.5838 229.912 59.9342C230.299 60.3259 231.073 61.3053 232.235 62.8722C232.407 63.0023 232.574 63.1301 232.736 63.2555ZM176.142 84.7149C176.25 84.6846 176.36 84.6506 176.471 84.613C178.02 84.613 179.376 84.2213 180.538 83.4378C182.087 82.6544 183.442 81.4792 184.604 79.9123C183.829 80.304 182.861 80.6957 181.699 81.0875C180.925 81.0875 180.344 81.2833 179.957 81.6751C179.44 81.8056 178.946 81.9144 178.472 82.0015L175.891 84.613L176.142 84.7149ZM187.508 95.1896C187.121 90.0972 185.572 86.3758 182.861 84.0254L189.831 76.3867C192.929 75.995 195.447 75.2116 197.383 74.0364C199.319 75.6033 202.804 77.9536 207.839 81.0875C210.162 86.5716 211.905 90.4889 213.066 92.8393L212.486 93.4268C207.451 96.9524 203.579 99.4986 200.868 101.066C198.545 102.241 196.027 102.045 193.317 100.478C189.831 98.911 187.895 97.1483 187.508 95.1896Z" fill="#19665E"/>
<path d="M181.699 81.0875C180.925 81.0875 180.344 81.2833 179.957 81.6751C179.44 81.8056 178.946 81.9144 178.472 82.0015L175.891 84.613L176.142 84.7149C176.25 84.6846 176.36 84.6506 176.471 84.613C178.02 84.613 179.376 84.2213 180.538 83.4378C182.087 82.6544 183.442 81.4792 184.604 79.9123C183.829 80.304 182.861 80.6957 181.699 81.0875Z" fill="#19665E"/>
<path d="M229.331 168.638H224.684L224.504 171.612C224.472 172.149 224.87 172.615 225.405 172.667L264.248 176.457C264.836 176.514 265.345 176.052 265.345 175.462V170.989L261.279 171.576L229.331 168.638Z" fill="#19665E"/>
</g>
<defs>
<filter id="filter0_d_2073_16294" x="0" y="0" width="107.306" height="174.815" filterUnits="userSpaceOnUse" color-interpolation-filters="sRGB">
<feFlood flood-opacity="0" result="BackgroundImageFix"/>
<feColorMatrix in="SourceAlpha" type="matrix" values="0 0 0 0 0 0 0 0 0 0 0 0 0 0 0 0 0 0 127 0" result="hardAlpha"/>
<feOffset dx="3" dy="3"/>
<feGaussianBlur stdDeviation="1.5"/>
<feComposite in2="hardAlpha" operator="out"/>
<feColorMatrix type="matrix" values="0 0 0 0 0 0 0 0 0 0.3875 0 0 0 0 0.34724 0 0 0 0.25 0"/>
<feBlend mode="normal" in2="BackgroundImageFix" result="effect1_dropShadow_2073_16294"/>
<feBlend mode="normal" in="SourceGraphic" in2="effect1_dropShadow_2073_16294" result="shape"/>
</filter>
<filter id="filter1_d_2073_16294" x="305.246" y="0" width="105.754" height="174.583" filterUnits="userSpaceOnUse" color-interpolation-filters="sRGB">
<feFlood flood-opacity="0" result="BackgroundImageFix"/>
<feColorMatrix in="SourceAlpha" type="matrix" values="0 0 0 0 0 0 0 0 0 0 0 0 0 0 0 0 0 0 127 0" result="hardAlpha"/>
<feOffset dx="3" dy="3"/>
<feGaussianBlur stdDeviation="1.5"/>
<feComposite in2="hardAlpha" operator="out"/>
<feColorMatrix type="matrix" values="0 0 0 0 0 0 0 0 0 0.3875 0 0 0 0 0.34724 0 0 0 0.25 0"/>
<feBlend mode="normal" in2="BackgroundImageFix" result="effect1_dropShadow_2073_16294"/>
<feBlend mode="normal" in="SourceGraphic" in2="effect1_dropShadow_2073_16294" result="shape"/>
</filter>
<filter id="filter2_d_2073_16294" x="161.601" y="0" width="109.744" height="182.462" filterUnits="userSpaceOnUse" color-interpolation-filters="sRGB">
<feFlood flood-opacity="0" result="BackgroundImageFix"/>
<feColorMatrix in="SourceAlpha" type="matrix" values="0 0 0 0 0 0 0 0 0 0 0 0 0 0 0 0 0 0 127 0" result="hardAlpha"/>
<feOffset dx="3" dy="3"/>
<feGaussianBlur stdDeviation="1.5"/>
<feComposite in2="hardAlpha" operator="out"/>
<feColorMatrix type="matrix" values="0 0 0 0 0 0 0 0 0 0.3875 0 0 0 0 0.34724 0 0 0 0.25 0"/>
<feBlend mode="normal" in2="BackgroundImageFix" result="effect1_dropShadow_2073_16294"/>
<feBlend mode="normal" in="SourceGraphic" in2="effect1_dropShadow_2073_16294" result="shape"/>
</filter>
</defs>
</svg>
