<?xml version="1.0" encoding="utf-8"?>
<!-- Generator: Adobe Illustrator 24.0.1, SVG Export Plug-In . SVG Version: 6.00 Build 0)  -->
<svg version="1.1" id="Ebene_1" xmlns="http://www.w3.org/2000/svg" xmlns:xlink="http://www.w3.org/1999/xlink" x="0px" y="0px"
	 viewBox="0 0 225 150" style="enable-background:new 0 0 225 150;" xml:space="preserve">
<path d="M209.4,6.4h-14.6c-0.8,0-1.5,0.7-1.5,1.5v9.7c0,0.8,0.6,1.5,1.5,1.5h5.8l-0.5,1.5H198c-0.4,0-0.7,0.3-0.7,0.7
	c0,0.4,0.3,0.7,0.7,0.7h8.3c0.4,0,0.7-0.3,0.7-0.7c0-0.4-0.3-0.7-0.7-0.7H204l-0.5-1.5h5.8c0.8,0,1.5-0.6,1.5-1.5V7.9
	C210.8,7.1,210.2,6.4,209.4,6.4z M208.9,15.2h-13.6V8.4h13.6V15.2z M90.9,126H76.3c-0.8,0-1.5,0.7-1.5,1.5v9.7
	c0,0.8,0.6,1.5,1.5,1.5h5.8l-0.5,1.5h-2.2c-0.4,0-0.7,0.3-0.7,0.7c0,0.4,0.3,0.7,0.7,0.7h8.3c0.4,0,0.7-0.3,0.7-0.7
	c0-0.4-0.3-0.7-0.7-0.7h-2.2l-0.5-1.5h5.8c0.8,0,1.5-0.6,1.5-1.5v-9.7C92.3,126.7,91.6,126,90.9,126z M90.4,134.8H76.8V128h13.6
	V134.8z M188.4,74.1h-1.9c0,3.8,3,6.8,6.8,6.8v4.4c0,0.3,0.2,0.5,0.5,0.5h1c0.2,0,0.5-0.2,0.5-0.5v-4.4
	C195.2,77.2,192.1,74.1,188.4,74.1z M200,72.2c-2.6,0-4.8,1.4-5.9,3.5c0.9,0.9,1.5,2,1.8,3.2c3.4-0.3,6.1-3.2,6.1-6.8H200z
	 M140.1,113.2h-4.9c-0.5,0-1,0.5-1,1v4.9c0,0.5,0.4,1,1,1h4.9c0.5,0,1-0.4,1-1v-4.9C141.1,113.6,140.6,113.2,140.1,113.2z
	 M139.2,117.5c0.1,0.1,0.1,0.2,0,0.3l-0.3,0.3c-0.1,0.1-0.2,0.1-0.3,0l-0.9-0.8l-0.9,0.8c-0.1,0.1-0.2,0.1-0.3,0l-0.3-0.3
	c-0.1-0.1-0.1-0.2,0-0.3l0.8-0.9l-0.8-0.9c-0.1-0.1-0.1-0.2,0-0.3l0.3-0.3c0.1-0.1,0.2-0.1,0.3,0l0.9,0.9l0.9-0.9
	c0.1-0.1,0.2-0.1,0.3,0l0.3,0.3c0.1,0.1,0.1,0.2,0,0.3l-0.9,0.9L139.2,117.5z M148.8,104.4H144c-0.5,0-1,0.5-1,1v4.9
	c0,0.5,0.4,1,1,1h4.9c0.5,0,1-0.4,1-1v-4.9C149.8,104.9,149.4,104.4,148.8,104.4z M148.4,108.1c0,0.2-0.1,0.2-0.2,0.2h-1.2v1.2
	c0,0.2-0.1,0.2-0.2,0.2h-0.5c-0.2,0-0.2-0.1-0.2-0.2v-1.2h-1.2c-0.2,0-0.2-0.1-0.2-0.2v-0.5c0-0.1,0.1-0.2,0.2-0.2h1.2v-1.2
	c0-0.1,0.1-0.2,0.2-0.2h0.5c0.1,0,0.2,0.1,0.2,0.2v1.2h1.2c0.1,0,0.2,0.1,0.2,0.2V108.1z M148.8,113.2H144c-0.5,0-1,0.5-1,1v4.9
	c0,0.5,0.4,1,1,1h4.9c0.5,0,1-0.4,1-1v-4.9C149.8,113.6,149.4,113.2,148.8,113.2z M148.4,117.8c0,0.2-0.1,0.2-0.2,0.2h-3.4
	c-0.2,0-0.2-0.1-0.2-0.2v-0.5c0-0.1,0.1-0.2,0.2-0.2h3.4c0.1,0,0.2,0.1,0.2,0.2V117.8z M148.4,115.9c0,0.2-0.1,0.2-0.2,0.2h-3.4
	c-0.2,0-0.2-0.1-0.2-0.2v-0.5c0-0.1,0.1-0.2,0.2-0.2h3.4c0.1,0,0.2,0.1,0.2,0.2V115.9z M140.1,104.4h-4.9c-0.5,0-1,0.5-1,1v4.9
	c0,0.5,0.4,1,1,1h4.9c0.5,0,1-0.4,1-1v-4.9C141.1,104.9,140.6,104.4,140.1,104.4z M139.6,108.1c0,0.2-0.1,0.2-0.2,0.2H136
	c-0.2,0-0.2-0.1-0.2-0.2v-0.5c0-0.1,0.1-0.2,0.2-0.2h3.4c0.1,0,0.2,0.1,0.2,0.2V108.1z M10,75.6H5.1c-0.5,0-1,0.5-1,1v4.9
	c0,0.5,0.4,1,1,1H10c0.5,0,1-0.4,1-1v-4.9C10.9,76.1,10.5,75.6,10,75.6z M9,79.9c0.1,0.1,0.1,0.2,0,0.3l-0.3,0.3
	c-0.1,0.1-0.2,0.1-0.3,0l-0.8-0.8l-0.9,0.8c-0.1,0.1-0.2,0.1-0.3,0L6,80.2c-0.1-0.1-0.1-0.2,0-0.3L6.8,79L6,78.2
	c-0.1-0.1-0.1-0.2,0-0.3l0.3-0.3c0.1-0.1,0.2-0.1,0.3,0l0.9,0.8l0.8-0.8c0.1-0.1,0.2-0.1,0.3,0L9,77.8c0.1,0.1,0.1,0.2,0,0.3L8.2,79
	L9,79.9z M18.7,66.9h-4.9c-0.5,0-1,0.5-1,1v4.9c0,0.5,0.4,1,1,1h4.9c0.5,0,1-0.4,1-1v-4.9C19.7,67.3,19.2,66.9,18.7,66.9z
	 M18.2,70.5c0,0.2-0.1,0.2-0.2,0.2h-1.2V72c0,0.2-0.1,0.2-0.2,0.2H16c-0.2,0-0.2-0.1-0.2-0.2v-1.2h-1.2c-0.2,0-0.2-0.1-0.2-0.2V70
	c0-0.1,0.1-0.2,0.2-0.2h1.2v-1.2c0-0.1,0.1-0.2,0.2-0.2h0.5c0.1,0,0.2,0.1,0.2,0.2v1.2H18c0.1,0,0.2,0.1,0.2,0.2V70.5z M18.7,75.6
	h-4.9c-0.5,0-1,0.5-1,1v4.9c0,0.5,0.4,1,1,1h4.9c0.5,0,1-0.4,1-1v-4.9C19.7,76.1,19.2,75.6,18.7,75.6z M18.2,80.2
	c0,0.2-0.1,0.2-0.2,0.2h-3.4c-0.2,0-0.2-0.1-0.2-0.2v-0.5c0-0.1,0.1-0.2,0.2-0.2H18c0.1,0,0.2,0.1,0.2,0.2V80.2z M18.2,78.3
	c0,0.2-0.1,0.2-0.2,0.2h-3.4c-0.2,0-0.2-0.1-0.2-0.2v-0.5c0-0.1,0.1-0.2,0.2-0.2H18c0.1,0,0.2,0.1,0.2,0.2V78.3z M10,66.9H5.1
	c-0.5,0-1,0.5-1,1v4.9c0,0.5,0.4,1,1,1H10c0.5,0,1-0.4,1-1v-4.9C10.9,67.3,10.5,66.9,10,66.9z M9.5,70.5c0,0.2-0.1,0.2-0.2,0.2H5.8
	c-0.2,0-0.2-0.1-0.2-0.2V70c0-0.1,0.1-0.2,0.2-0.2h3.4c0.1,0,0.2,0.1,0.2,0.2V70.5z M110.8,44.5h-4.9c-0.5,0-1,0.5-1,1v4.9
	c0,0.5,0.4,1,1,1h4.9c0.5,0,1-0.4,1-1v-4.9C111.8,45,111.3,44.5,110.8,44.5z M109.9,48.8c0.1,0.1,0.1,0.2,0,0.3l-0.3,0.3
	c-0.1,0.1-0.2,0.1-0.3,0l-0.8-0.8l-0.9,0.8c-0.1,0.1-0.2,0.1-0.3,0l-0.3-0.3c-0.1-0.1-0.1-0.2,0-0.3l0.8-0.9l-0.8-0.8
	c-0.1-0.1-0.1-0.2,0-0.3l0.3-0.3c0.1-0.1,0.2-0.1,0.3,0l0.9,0.8l0.8-0.8c0.1-0.1,0.2-0.1,0.3,0l0.3,0.3c0.1,0.1,0.1,0.2,0,0.3
	l-0.8,0.8L109.9,48.8z M119.5,35.8h-4.9c-0.5,0-1,0.5-1,1v4.9c0,0.5,0.4,1,1,1h4.9c0.5,0,1-0.4,1-1v-4.9
	C120.5,36.3,120.1,35.8,119.5,35.8z M119.1,39.4c0,0.2-0.1,0.2-0.2,0.2h-1.2v1.2c0,0.2-0.1,0.2-0.2,0.2h-0.5c-0.2,0-0.2-0.1-0.2-0.2
	v-1.2h-1.2c-0.2,0-0.2-0.1-0.2-0.2V39c0-0.1,0.1-0.2,0.2-0.2h1.2v-1.2c0-0.1,0.1-0.2,0.2-0.2h0.5c0.1,0,0.2,0.1,0.2,0.2v1.2h1.2
	c0.1,0,0.2,0.1,0.2,0.2V39.4z M119.5,44.5h-4.9c-0.5,0-1,0.5-1,1v4.9c0,0.5,0.4,1,1,1h4.9c0.5,0,1-0.4,1-1v-4.9
	C120.5,45,120.1,44.5,119.5,44.5z M119.1,49.2c0,0.2-0.1,0.2-0.2,0.2h-3.4c-0.2,0-0.2-0.1-0.2-0.2v-0.5c0-0.1,0.1-0.2,0.2-0.2h3.4
	c0.1,0,0.2,0.1,0.2,0.2V49.2z M119.1,47.2c0,0.2-0.1,0.2-0.2,0.2h-3.4c-0.2,0-0.2-0.1-0.2-0.2v-0.5c0-0.1,0.1-0.2,0.2-0.2h3.4
	c0.1,0,0.2,0.1,0.2,0.2V47.2z M110.8,35.8h-4.9c-0.5,0-1,0.5-1,1v4.9c0,0.5,0.4,1,1,1h4.9c0.5,0,1-0.4,1-1v-4.9
	C111.8,36.3,111.3,35.8,110.8,35.8z M110.3,39.4c0,0.2-0.1,0.2-0.2,0.2h-3.4c-0.2,0-0.2-0.1-0.2-0.2V39c0-0.1,0.1-0.2,0.2-0.2h3.4
	c0.1,0,0.2,0.1,0.2,0.2V39.4z M200.3,123.6l1.7,1.7c0.1,0.1,0.1,0.2,0,0.3l-0.4,0.4c-0.1,0.1-0.2,0.1-0.3,0l-1.7-1.7l-1.4,1.4
	l1.7,1.7c0.1,0.1,0.1,0.2,0,0.3l-0.3,0.4c-0.1,0.1-0.3,0.1-0.4,0l-1.7-1.7l-0.8,0.8c-0.5,0.5-0.8,1.2-0.7,2l0.2,1.9l-2,2
	c-0.1,0.1-0.1,0.3,0,0.4l0.3,0.3c0.1,0.1,0.2,0.1,0.3,0l2-2l1.9,0.2c0.7,0.1,1.5-0.2,2-0.7l5.5-5.5l-4.1-4.1L200.3,123.6z
	 M209.6,120.7l-2.4-2.4c-0.1-0.1-0.2-0.1-0.3,0l-0.4,0.3c-0.1,0.1-0.1,0.2,0,0.3l0.9,0.9l-1.4,1.4l-1.7-1.7l-0.5-0.5
	c-0.1-0.1-0.2-0.1-0.3,0l-1,1c-0.1,0.1-0.1,0.2,0,0.4l0.5,0.5l4.1,4.1l0.5,0.5c0.1,0.1,0.3,0.1,0.4,0l1-1c0.1-0.1,0.1-0.2,0-0.3
	l-2.2-2.2l1.4-1.4l0.9,0.9c0.1,0.1,0.2,0.1,0.3,0l0.3-0.4C209.7,121,209.7,120.8,209.6,120.7z M86.5,84.3l1.7,1.7
	c0.1,0.1,0.1,0.2,0,0.3l-0.4,0.4c-0.1,0.1-0.2,0.1-0.3,0L85.8,85l-1.4,1.4l1.7,1.7c0.1,0.1,0.1,0.2,0,0.3l-0.3,0.4
	c-0.1,0.1-0.3,0.1-0.4,0L83.8,87L83,87.8c-0.5,0.5-0.8,1.2-0.7,2l0.2,1.9l-2,2c-0.1,0.1-0.1,0.3,0,0.4l0.3,0.3
	c0.1,0.1,0.2,0.1,0.3,0l2-2l1.9,0.2c0.7,0.1,1.5-0.2,2-0.7l5.5-5.5l-4.1-4.1L86.5,84.3z M95.9,81.5l-2.4-2.4c-0.1-0.1-0.2-0.1-0.3,0
	l-0.4,0.3c-0.1,0.1-0.1,0.2,0,0.3l0.9,0.9L92.2,82l-1.7-1.7L90,79.7c-0.1-0.1-0.2-0.1-0.3,0l-1,1c-0.1,0.1-0.1,0.2,0,0.4l0.5,0.5
	l4.1,4.1l0.5,0.5c0.1,0.1,0.3,0.1,0.4,0l1-1c0.1-0.1,0.1-0.2,0-0.3l-2.2-2.2l1.4-1.4l0.9,0.9c0.1,0.1,0.2,0.1,0.3,0l0.3-0.4
	C95.9,81.7,95.9,81.5,95.9,81.5z M107.8,0.6c-4.2,0-7.5,3.4-7.5,7.5c0,4.2,3.4,7.5,7.5,7.5c4.1,0,7.5-3.4,7.5-7.5
	C115.3,4,111.9,0.6,107.8,0.6z M110.3,11.5c-0.1,0.1-0.2,0.2-0.4,0.3c-0.1,0.1-0.2,0.2-0.2,0.3c0,0.2-0.1,0.3-0.1,0.5l-0.5,1.4
	c-0.4,0.1-0.8,0.1-1.3,0.1v-0.8c0-0.4-0.2-1.1-0.7-1.5c-0.2-0.2-0.3-0.4-0.3-0.7v-1c0-0.3-0.2-0.7-0.5-0.8c-0.4-0.2-1.1-0.6-1.5-0.8
	c-0.3-0.2-0.7-0.4-0.9-0.7h0c-0.2-0.2-0.4-0.5-0.5-0.6c-0.3-0.4-0.8-1.1-1.1-1.5c0.6-1.4,1.7-2.5,3.1-3.1l0.7,0.4
	c0.3,0.2,0.7-0.1,0.7-0.4V2.2c0.2,0,0.5-0.1,0.7-0.1l0.8,0.8c0.2,0.2,0.2,0.5,0,0.7l-0.1,0.1l-0.3,0.3c-0.1,0.1-0.1,0.2,0,0.3
	l0.2,0.2c0.1,0.1,0.1,0.2,0,0.3l-0.2,0.2c0,0-0.1,0.1-0.2,0.1h-0.3c-0.1,0-0.1,0-0.2,0.1l-0.3,0.3c-0.1,0.1-0.1,0.1-0.1,0.2
	c0,0,0,0.1,0,0.1l0.5,0.9c0.1,0.2,0,0.3-0.2,0.3H107c-0.1,0-0.1,0-0.2,0l-0.3-0.3c-0.1-0.1-0.2-0.1-0.3-0.1c-0.1,0-0.1,0-0.2,0
	l-0.9,0.3c-0.2,0-0.2,0.2-0.2,0.3c0,0.2,0.1,0.3,0.2,0.3l0.3,0.2c0.3,0.2,0.6,0.2,0.9,0.2c0.3,0,0.7,0.8,1,1h2
	c0.3,0,0.5,0.1,0.7,0.3l0.4,0.4c0.2,0.1,0.3,0.4,0.3,0.6C110.7,10.8,110.5,11.3,110.3,11.5z M112.9,8.7c-0.2-0.1-0.3-0.2-0.5-0.3
	l-0.5-0.8c-0.1-0.1-0.1-0.3-0.1-0.4c0-0.1,0.1-0.3,0.1-0.4l0.6-0.9c0.1-0.1,0.2-0.2,0.3-0.2l0.4-0.2c0.4,0.8,0.7,1.7,0.7,2.7
	c0,0.3,0,0.5-0.1,0.8L112.9,8.7z M55.9,51.6c-4.2,0-7.5,3.4-7.5,7.5c0,4.2,3.4,7.5,7.5,7.5c4.1,0,7.5-3.4,7.5-7.5
	C63.4,55,60,51.6,55.9,51.6z M58.3,62.4c-0.1,0.1-0.2,0.2-0.4,0.3c-0.1,0.1-0.2,0.2-0.2,0.3c0,0.2-0.1,0.3-0.1,0.5l-0.5,1.4
	c-0.4,0.1-0.8,0.1-1.3,0.1v-0.8c0-0.4-0.2-1.1-0.7-1.5c-0.2-0.2-0.3-0.4-0.3-0.7v-1c0-0.3-0.2-0.7-0.5-0.8c-0.4-0.2-1.1-0.6-1.5-0.8
	c-0.3-0.2-0.7-0.4-0.9-0.7h0c-0.2-0.2-0.4-0.5-0.5-0.6c-0.3-0.4-0.8-1.1-1.1-1.5c0.6-1.4,1.7-2.5,3.1-3.1l0.7,0.4
	c0.3,0.2,0.7-0.1,0.7-0.4v-0.4c0.2,0,0.5-0.1,0.7-0.1l0.8,0.8c0.2,0.2,0.2,0.5,0,0.7l-0.1,0.1L56,55.1c-0.1,0.1-0.1,0.2,0,0.3
	l0.2,0.2c0.1,0.1,0.1,0.2,0,0.3l-0.2,0.2c0,0-0.1,0.1-0.2,0.1h-0.3c-0.1,0-0.1,0-0.2,0.1L55,56.6c-0.1,0.1-0.1,0.1-0.1,0.2
	c0,0,0,0.1,0,0.1l0.5,0.9c0.1,0.2,0,0.3-0.2,0.3H55c-0.1,0-0.1,0-0.2,0l-0.3-0.3c-0.1-0.1-0.2-0.1-0.3-0.1c-0.1,0-0.1,0-0.2,0
	l-0.9,0.3c-0.2,0-0.2,0.2-0.2,0.3c0,0.2,0.1,0.3,0.2,0.3l0.3,0.2c0.3,0.2,0.6,0.2,0.9,0.2c0.3,0,0.7,0.8,1,1h2
	c0.3,0,0.5,0.1,0.7,0.3l0.4,0.4c0.2,0.1,0.3,0.4,0.3,0.6C58.8,61.8,58.6,62.2,58.3,62.4z M61,59.7c-0.2-0.1-0.3-0.2-0.5-0.3L60,58.6
	c-0.1-0.1-0.1-0.3-0.1-0.4c0-0.1,0.1-0.3,0.1-0.4l0.6-0.9c0.1-0.1,0.2-0.2,0.3-0.2l0.4-0.2c0.4,0.8,0.7,1.7,0.7,2.7
	c0,0.3,0,0.5-0.1,0.8L61,59.7z M39.8,28.2l-3.6-5.7v-4.6h0.2c0.4,0,0.7-0.3,0.7-0.7v-0.5c0-0.4-0.3-0.7-0.7-0.7h-6.3
	c-0.4,0-0.7,0.3-0.7,0.7v0.5c0,0.4,0.3,0.7,0.7,0.7h0.2v4.6l-3.6,5.7c-0.9,1.4,0.2,3.3,1.8,3.3H38C39.6,31.5,40.7,29.6,39.8,28.2z
	 M30.7,25.7l1.5-2.3c0.1-0.2,0.2-0.4,0.2-0.6v-4.9h1.9v4.9c0,0.2,0.1,0.4,0.2,0.6l1.5,2.3H30.7z M163,61.9l-3.6-5.7v-4.6h0.2
	c0.4,0,0.7-0.3,0.7-0.7v-0.5c0-0.4-0.3-0.7-0.7-0.7h-6.3c-0.4,0-0.7,0.3-0.7,0.7v0.5c0,0.4,0.3,0.7,0.7,0.7h0.2v4.6l-3.6,5.7
	c-0.9,1.4,0.2,3.3,1.8,3.3h9.3C162.9,65.2,163.9,63.3,163,61.9z M153.9,59.3l1.5-2.3c0.1-0.2,0.2-0.4,0.2-0.6v-4.9h1.9v4.9
	c0,0.2,0.1,0.4,0.2,0.6l1.5,2.3H153.9z M31.8,120c1.5-2.3,2-4.7,0.7-6c-1.3-1.3-3.7-0.8-6.1,0.7c-2.3-1.5-4.7-2-6-0.7
	c-1.3,1.3-0.8,3.7,0.7,6c-1.5,2.3-2,4.7-0.7,6.1c1.3,1.2,3.5,0.9,6-0.7c2.5,1.6,4.8,1.9,6.1,0.7C33.8,124.7,33.2,122.3,31.8,120z
	 M24.7,124.1c-1.4,0.8-2.6,0.9-2.9,0.5c-0.4-0.4-0.2-1.5,0.5-2.9C23.2,122.8,23.9,123.5,24.7,124.1z M22.3,118.3
	c-0.8-1.5-0.9-2.6-0.5-2.9c0.1-0.2,0.3-0.2,0.6-0.2c0.5,0,1.4,0.2,2.3,0.8C24,116.5,22.9,117.6,22.3,118.3z M29.4,120
	c-1,1.3-1.9,2.2-3,3c-1.3-1-2.2-1.9-3-3c0.7-1,2-2.3,3-3C27.4,117.7,28.7,119,29.4,120z M27.4,120c0-0.5-0.5-1-1-1h0
	c-0.5,0-1,0.5-1,1c0,0.5,0.5,1,1,1C26.9,121,27.4,120.5,27.4,120L27.4,120z M31.1,115.3c0.4,0.4,0.2,1.5-0.5,2.9
	c-0.6-0.7-1.7-1.8-2.4-2.4c0.9-0.5,1.8-0.8,2.3-0.8C30.7,115.1,30.9,115.2,31.1,115.3z M30.5,121.7c0.8,1.5,0.9,2.6,0.5,2.9
	c-0.4,0.4-1.5,0.2-2.9-0.5C28.9,123.5,29.6,122.8,30.5,121.7z"/>
</svg>
