<?xml version="1.0" encoding="utf-8"?>
<!-- Generator: Adobe Illustrator 23.0.3, SVG Export Plug-In . SVG Version: 6.00 Build 0)  -->
<!--<svg version="1.1" id="Ebene_1" xmlns="http://www.w3.org/2000/svg" xmlns:xlink="http://www.w3.org/1999/xlink"-->
<!--	 viewBox="0 0 560 288" xml:space="preserve">-->
<svg version="1.1" id="Ebene_1" xmlns="http://www.w3.org/2000/svg" xmlns:xlink="http://www.w3.org/1999/xlink"
     viewBox="141 5 275 280" xml:space="preserve">
<style type="text/css">
	.st0{fill:#EFEFEF;}
	.st1{fill:#020202;}
	.st2{display:none;fill:#EFEFEF;}
	.st3{fill:none;stroke:#000000;stroke-width:2;stroke-miterlimit:10;}
</style>
<g>
	<g>
		<path class="st0" d="M424,2.7c-0.6-0.1-1,0.4-1.3,0.8c-5.2,5.2-10.3,10.4-15.5,15.5c-15.3,14.8-30.1,30.1-45.3,45
			c-15.6,15.2-30.8,30.9-46.3,46.1c-15.1,14.8-29.8,29.9-44.9,44.7c-15.3,14.9-30.2,30.3-45.4,45.2c-15.4,15-30.3,30.4-45.7,45.5
			c-13.6,13.3-26.9,26.8-40.4,40.2c-0.3,0.3-0.6,0.8-1.1,0.8c0-94.7,0-189.4,0-284.2c0.6,0,1.1,0,1.7,0c94.4,0,188.9,0,283.3,0
			c0.3,0,0.5,0,0.8,0C424.3,2.2,424,2.6,424,2.7z M250.7,86.6C250.7,86.6,250.7,86.6,250.7,86.6c0-1.2,0-2.5,0-3.7
			c0-21.6,0-43.2,0-64.8c0-0.3,0-0.7,0-1c0-0.5-0.3-0.8-0.8-0.8c-2,0-3.9,0-5.9,0c-0.7,0-0.8,0.2-0.8,0.9c0,0.7,0.1,1.5,0.1,2.2
			c0,19.4,0,38.8,0,58.2c0,1.6,0.2,1.4-1.4,1.4c-22,0-44,0-66,0c-0.5,0-1,0-1.5,0c-2.1,0-3.8,1-5.1,2.7c-0.9,1.3-1.2,2.7-1.2,4.2
			c0,22.9,0,45.8,0,68.7c0,0.3,0,0.5,0,0.8c0.1,1,0.3,1.9,0.8,2.7c1.3,2.2,3.2,3.4,5.9,3.4c10.2,0,20.4,0,30.7,0
			c12.9,0,25.8,0,38.6,0c2.8,0,5.7-2,6.4-4.7c0.2-0.9,0.2-1.7,0.2-2.6C250.7,131.8,250.7,109.2,250.7,86.6z"/>
	</g>
	<g>
		<path class="st1" d="M250.7,86.6c0,22.6,0,45.2,0,67.8c0,0.9,0,1.8-0.2,2.6c-0.7,2.7-3.6,4.7-6.4,4.7c-12.9-0.1-25.8,0-38.6,0
			c-10.2,0-20.4,0-30.7,0c-2.6,0-4.5-1.2-5.9-3.4c-0.5-0.8-0.7-1.8-0.8-2.7c0-0.3,0-0.5,0-0.8c0-22.9,0-45.8,0-68.7
			c0-1.5,0.3-3,1.2-4.2c1.3-1.7,3-2.6,5.1-2.7c0.5,0,1,0,1.5,0c22,0,44,0,66,0c1.6,0,1.4,0.3,1.4-1.4c0-19.4,0-38.8,0-58.2
			c0-0.7,0-1.5-0.1-2.2c0-0.8,0.1-0.9,0.8-0.9c2,0,3.9,0,5.9,0c0.5,0,0.8,0.3,0.8,0.8c0,0.3,0,0.7,0,1c0,21.6,0,43.2,0,64.8
			C250.7,84.2,250.7,85.4,250.7,86.6C250.7,86.6,250.7,86.6,250.7,86.6z M174.7,120.3c0,0.9,0,1.8,0,2.8c0,9.1,0,18.1,0,27.2
			c0,2.8,1.9,4.7,4.6,4.9c0.3,0,0.6,0,0.9,0c19.4,0,38.9,0,58.3,0c0.7,0,1.3,0,1.9-0.2c1.7-0.4,2.8-1.4,3.4-3
			c0.3-0.7,0.3-1.4,0.3-2.2c0-19.6,0-39.3,0-58.9c0-0.3,0-0.5,0-0.8c-0.1-2.3-1.7-4.1-4-4.4c-0.5-0.1-1.1-0.1-1.6-0.1
			c-19.4,0-38.8,0-58.2,0c-0.5,0-1.1,0-1.6,0.1c-1.5,0.2-2.6,0.9-3.3,2.2c-0.5,0.9-0.7,1.8-0.7,2.9
			C174.7,100.6,174.7,110.5,174.7,120.3z"/>
	</g>
	<path class="st2" d="M346.2,198.5c0.3,0,0.4,0.2,0.4,0.5C346.2,199,346.1,198.9,346.2,198.5z"/>
	<g>
		<path class="st0" d="M174.7,120.3c0-9.8,0-19.7,0-29.5c0-1,0.1-2,0.7-2.9c0.8-1.2,1.9-2,3.3-2.2c0.5-0.1,1.1-0.1,1.6-0.1
			c19.4,0,38.8,0,58.2,0c0.5,0,1.1,0,1.6,0.1c2.3,0.3,3.9,2.1,4,4.4c0,0.3,0,0.5,0,0.8c0,19.6,0,39.3,0,58.9c0,0.7,0,1.5-0.3,2.2
			c-0.6,1.6-1.7,2.6-3.4,3c-0.6,0.2-1.3,0.2-1.9,0.2c-19.4,0-38.9,0-58.3,0c-0.3,0-0.6,0-0.9,0c-2.8-0.2-4.6-2.1-4.6-4.9
			c0-9.1,0-18.1,0-27.2C174.7,122.1,174.7,121.2,174.7,120.3z"/>
	</g>
</g>
<g>
	<g>
		<g>
			<g>
				<path d="M312.5,262.4c-0.2-2.6-0.3-5.2-0.4-7.5c-0.1-2.1-0.1-4.7-0.3-5.4c-10.1-11.8-11.4-26.7-12-33.1
					c-0.1-1.1-0.2-2.3-0.3-2.8c-2.3-3.2-1.1-6.3-0.5-7.8c0.1-0.1,0.1-0.2,0.1-0.3c-1.8-2.9-3.1-7.7-3-9.5c0.1-5.6,2.8-9.2,7.4-9.9
					c-0.1-4.1,2.7-8.3,5.9-10c3.1-1.6,6-2.1,8.4-1.3c0.7-3.1,2.9-6.4,6.2-7.5c3.8-1.4,6.6-1.8,8.5-1.1c0.8-1.4,2-2.5,3.5-3.2
					c-2.3-10.2-3.4-39.6-2.4-46.9c0.4-2.7,3.3-4.9,6.4-4.9c5.9,0,9.2,4.2,11.8,8.7c1.9,3.2,4.5,14,4.8,21.4
					c0.1,4.3,0.7,13.5,1.1,22.3c0.6,10.3,1.1,20.2,1.2,23.2c0.1,0.1,0.3,0.4,0.5,0.5c0.8,0.9,2,2.2,2.6,4.1c0.7,2.2,0.7,3.9,0.6,5.5
					c-0.1,1.1-0.1,2.1,0.1,3.4c0.1,0.6,0.9,2,1.7,3c0.9,1.4,1.8,2.8,2.2,4.1c2.2,8.2-5.9,30-9.8,36c-0.2,1-0.1,5.4,0.1,8.9
					c0.1,2.6,0.2,5.4,0.2,8.1h-3.4c0-2.6-0.1-5.5-0.2-8c-0.3-7.8-0.3-9.7,0.4-10.8c3.9-5.9,11.2-26.9,9.5-33.4
					c-0.2-0.8-1-2.1-1.8-3.2c-1-1.6-1.9-3-2.2-4.3c-0.3-1.6-0.2-2.9-0.1-4.1c0.1-1.5,0.1-2.6-0.4-4.2c-0.4-1.2-1.3-2.2-2-2.9
					c-0.7-0.8-1.4-1.5-1.4-2.6c0-2.5-0.6-13.1-1.2-23.3c-0.5-8.9-1-18.1-1.1-22.4c-0.3-7.2-2.8-17.2-4.4-19.8
					c-3-5.1-5.5-7.1-8.9-7.1c-1.6,0-2.8,1.2-3,2.1c-1.1,7.9,0.3,39.8,2.6,47l0.5,1.8l-1.8,0.3c-1.7,0.3-3,1.6-3.4,3.2l-0.7,2.9
					l-2.1-2.1c-0.9-0.9-3.3-0.7-7,0.7c-2.6,0.9-4.4,4.5-4.2,6.9l0.3,3.3l-2.8-1.7c-0.1-0.1-0.2-0.1-0.3-0.2
					c-1.7-1.4-4.1-1.2-7.1,0.3c-2.5,1.3-4.8,5.2-4,8.1l0.7,2.2h-2.2c-1.4,0-5.8,0-6,6.8c-0.1,1.1,1.1,5.9,2.6,8.2
					c0.7,0.9,0.3,1.8,0,2.8c-0.7,1.6-1.1,3,0.2,4.6c0.5,0.7,0.6,1.7,0.9,4.3c0.5,6.6,1.8,20.4,11.2,31.4c0.8,0.9,0.9,2.4,1.1,7.4
					c0.1,2.2,0.1,4.8,0.4,7.3L312.5,262.4z M311.9,249.6C311.9,249.6,311.9,249.7,311.9,249.6C311.9,249.7,311.9,249.6,311.9,249.6z
					 M299.4,206.1C299.4,206.1,299.5,206.1,299.4,206.1C299.5,206.1,299.4,206.1,299.4,206.1z"/>
			</g>
			<g>
				<path d="M311.9,263.1l-0.1-0.7c-0.2-2.4-0.3-5.1-0.4-7.5v-0.5c-0.1-1.6-0.1-3.9-0.3-4.7c-10-11.8-11.4-26.7-12-33.1v-0.3
					c-0.1-0.9-0.2-2-0.3-2.6c-2.3-3.3-1.1-6.6-0.5-8.2l0.1-0.1c-1.8-3-3-7.7-2.9-9.6c0.1-5.7,2.8-9.5,7.4-10.5
					c0.1-4,2.8-8.2,6.3-10.1c3-1.6,5.8-2.1,8.2-1.6c0.8-2.8,2.9-6.1,6.4-7.3c3.6-1.4,6.4-1.8,8.5-1.3c0.7-1.1,1.8-2.1,3-2.8
					c-2.3-11-3.2-39.6-2.2-46.6c0.5-3,3.6-5.5,7-5.5c6.3,0,9.8,4.6,12.4,9.1c2,3.3,4.6,14.2,4.9,21.8c0.1,3.2,0.4,9,0.7,15.1
					c0.1,2.4,0.3,4.7,0.4,7.2c0.4,7,1.1,19.1,1.2,23c0,0,0.1,0.1,0.1,0.1c0.1,0.1,0.1,0.2,0.2,0.2c1,1.1,2.1,2.4,2.8,4.3
					c0.8,2.3,0.7,4.1,0.7,5.8v0.1c-0.1,1-0.1,2,0.1,3.2c0.1,0.4,0.7,1.6,1.6,2.8c0.9,1.5,1.8,2.9,2.2,4.3c2.3,8.5-5.8,30.2-9.8,36.4
					c-0.1,0.9-0.1,3.8,0.1,8.7c0,0.8,0.1,1.6,0.1,2.4c0.1,1.9,0.1,3.8,0.1,5.7v0.7h-4.7v-0.7c0-1.8-0.1-3.8-0.1-5.7
					c0-0.8-0.1-1.6-0.1-2.4c-0.3-8.2-0.3-9.9,0.5-11.2c3.8-5.7,11.1-26.6,9.4-32.9c-0.1-0.6-0.7-1.6-1.7-3c-1.1-1.8-2-3.2-2.3-4.6
					c-0.3-1.8-0.2-3.1-0.1-4.3v-0.1c0.1-1.4,0.1-2.4-0.4-3.9c-0.3-1.1-1.1-1.9-1.8-2.6l-0.1-0.2c-0.7-0.8-1.5-1.6-1.5-2.9
					c0-2.6-0.7-13.8-1.2-23.3c-0.1-2.4-0.3-4.7-0.4-7c-0.3-6.3-0.7-12.2-0.7-15.4c-0.3-7.2-2.8-17-4.3-19.5
					c-2.9-4.9-5.3-6.8-8.3-6.8c-1.2,0-2.2,1-2.3,1.6c-1.1,7.9,0.3,39.5,2.6,46.7l0.7,2.6l-2.6,0.5c-1.4,0.3-2.6,1.4-2.9,2.8
					l-0.9,4.1l-3-3c-0.3-0.3-1.6-0.9-6.3,0.8c-2.2,0.8-3.9,4.1-3.8,6.2l0.4,4.6l-4.1-2.4c0,0-0.1-0.1-0.1-0.1l-0.1-0.1
					c-1.5-1.1-3.5-1-6.4,0.4c-2.2,1.1-4.4,4.7-3.7,7.3l0.9,3h-3.2c-1.4,0-5.1,0-5.3,6.2c-0.1,0.9,1,5.6,2.5,7.8
					c0.9,1.2,0.4,2.4,0.1,3.3v0.1c-0.7,1.8-0.9,2.8,0.1,3.9c0.7,0.9,0.7,1.9,1,4.3l0.1,0.5c0.5,6,1.6,20.1,11.1,31
					c0.9,1.1,1,2.6,1.2,7.8v0.3c0.1,2.2,0.1,4.6,0.4,7l0.1,0.7L311.9,263.1z M312.5,249.6c0.1,0.9,0.2,2.6,0.3,4.7v0.5
					c0.1,2.2,0.2,4.6,0.3,6.8l1.9-0.2c-0.2-2.2-0.3-4.4-0.3-6.4v-0.3c-0.2-4.5-0.3-6.2-0.9-7c-9.7-11.2-10.9-25.6-11.4-31.8
					l-0.1-0.4c-0.2-2.2-0.3-3-0.7-3.6c-1.5-1.8-0.9-3.6-0.3-5.3l0,0c0.3-0.9,0.5-1.5,0.1-2.1c-1.6-2.4-2.8-7.3-2.8-8.6
					c0.1-4.9,2.4-7.4,6.7-7.4h1.3l-0.4-1.3c-0.9-3.3,1.6-7.5,4.3-8.9c3.2-1.7,5.9-1.8,7.8-0.3c0.1,0.1,0.3,0.1,0.3,0.2l1.7,1l-0.1-2
					c-0.2-2.6,1.8-6.5,4.7-7.6c4-1.6,6.6-1.7,7.8-0.5l1.2,1.2l0.4-1.7c0.5-1.9,2-3.4,4-3.8l1.1-0.2l-0.3-1.1
					c-2.3-7.3-3.8-39.3-2.6-47.3c0.2-1.3,1.8-2.7,3.7-2.7c3.7,0,6.3,2.1,9.5,7.4c1.6,2.6,4.2,12.6,4.5,20.1
					c0.1,3.2,0.4,9.1,0.7,15.3c0.1,2.3,0.3,4.7,0.4,7c0.5,9.5,1.2,20.8,1.2,23.4c0,0.7,0.4,1.2,1.1,2l0.2,0.2c0.7,0.7,1.6,1.8,2,3.1
					c0.5,1.6,0.5,2.9,0.5,4.3v0.1c-0.1,1.2-0.1,2.4,0.1,4c0.3,1.1,1.1,2.6,2.1,4.1c1.1,1.6,1.7,2.6,1.8,3.4c1.8,6.6-5.6,28-9.5,33.9
					c-0.5,0.8-0.5,2.8-0.3,10.3c0,0.7,0.1,1.6,0.1,2.4c0.1,1.7,0.1,3.4,0.1,5.1h2c0-1.6-0.1-3.3-0.1-4.9c0-0.8-0.1-1.7-0.1-2.4
					c-0.2-5.4-0.2-8.2-0.1-9.1v-0.1l0.1-0.1c3.8-5.7,11.9-27.5,9.7-35.4c-0.4-1.1-1.2-2.6-2.1-3.9c-0.3-0.5-1.6-2.3-1.8-3.2
					c-0.2-1.4-0.1-2.4-0.1-3.5c0.1-1.7,0.1-3.3-0.5-5.3c-0.7-1.8-1.8-3-2.5-3.8c-0.1-0.1-0.1-0.2-0.3-0.3c-0.1-0.1-0.1-0.1-0.2-0.2
					l-0.2-0.2v-0.3c-0.1-3.5-0.8-16-1.2-23.2c-0.1-2.4-0.3-4.8-0.4-7.2c-0.3-6.2-0.7-12-0.7-15.1c-0.3-7.4-2.8-17.9-4.7-21.1
					c-2.6-4.3-5.7-8.4-11.2-8.4c-2.7,0-5.3,2-5.7,4.3c-0.9,7,0,36.2,2.4,46.6l0.1,0.5l-0.5,0.2c-1.4,0.6-2.5,1.6-3.2,2.9l-0.3,0.5
					l-0.5-0.1c-1.8-0.5-4.5-0.2-8.1,1.1c-3.2,1.1-5.1,4.5-5.7,7l-0.2,0.7l-0.7-0.3c-2.2-0.7-4.9-0.3-7.8,1.2
					c-2.8,1.5-5.7,5.4-5.6,9.4v0.6l-0.6,0.1c-4.3,0.7-6.8,4-6.9,9.3c-0.1,1.8,1.2,6.4,2.9,9.2l0.3,0.5l-0.3,0.3
					c0,0.1-0.1,0.1-0.1,0.2l0,0c0,0.1-0.1,0.1-0.1,0.3v0.3v-0.5v0.1c-0.5,1.6-1.4,4.1,0.6,6.8l0.1,0.1v0.1c0.1,0.5,0.2,1.8,0.3,2.8
					v0.3c0.6,6.3,2,21,11.8,32.5l0.1,0.1l0.1,0.1C312.4,249.4,312.4,249.5,312.5,249.6L312.5,249.6L312.5,249.6L312.5,249.6z
					 M299.4,206.4v0.3V206.4z M299.4,206v-0.6V206z"/>
			</g>
		</g>
	</g>
	<g id="Ebene_3">
		<g>
			<g>
				<g>
					<g>
						<path d="M336.7,165.8c1.4-0.7,3-1.3,4.7-1.1c0.9,0.1,1.7,0.3,2.4,0.7s1.4,0.9,2.1,1.6c0.3,0.3,0.6,0.7,0.8,1.3
							c0.2,0.5,0.2,1.1,0.1,1.6c-0.1,0.1,0,0.6,0.1,0.9c0.1,0.3,0.1,0.7,0.2,1c0.4,1.4,1.1,2.8,1.8,4.1c1.6,2.6,3.4,5.2,5.1,7.8
							c0.8,1.3,1.7,2.6,2.6,3.8c0.9,1.1,2.1,2.3,3.2,3.5c-1.4-0.8-2.8-1.6-4-2.7c-1.2-1.1-2.3-2.3-3.3-3.6c-1.8-2.5-3.8-5.1-5.4-7.8
							c-0.8-1.4-1.6-2.9-2-4.6c-0.1-0.4-0.2-0.9-0.2-1.3c0-0.2-0.1-0.4-0.1-0.7c0-0.1,0-0.2,0-0.3c0-0.2,0.1-0.3,0.1-0.4
							c0.1-0.3,0.1-0.5,0-0.7s-0.2-0.5-0.4-0.7c-0.4-0.5-0.9-1-1.6-1.4c-0.6-0.4-1.2-0.7-2-0.9C339.9,165.3,338.2,165.5,336.7,165.8
							z"/>
					</g>
					<g>
						<path d="M363.3,193.8l-4.2-2.5c-1.3-0.7-2.6-1.6-3.7-2.6s-2.2-2.2-3.4-3.7l-0.8-1.1c-1.6-2.2-3.2-4.4-4.6-6.8
							c-0.7-1.4-1.6-2.9-2-4.8c0-0.1-0.1-0.3-0.1-0.4c-0.1-0.3-0.1-0.7-0.1-1c0-0.1,0-0.1,0-0.2c0-0.1-0.1-0.3-0.1-0.5v-0.3
							c0-0.2,0.1-0.4,0.1-0.5v-0.1c0.1-0.3,0.1-0.3,0-0.4c0-0.1-0.1-0.3-0.3-0.5c-0.3-0.5-0.8-0.9-1.4-1.3c-0.5-0.3-1.1-0.7-1.8-0.9
							c-0.9-0.3-2.2-0.2-4.1,0.2l-4.5,1l4.1-2.2c1.7-0.9,3.4-1.4,5.1-1.2c0.9,0.1,1.8,0.3,2.7,0.8c0.9,0.5,1.6,1,2.2,1.7
							c0.4,0.4,0.7,0.9,0.9,1.6c0.3,0.6,0.3,1.4,0.1,2c0,0.1,0,0.3,0.1,0.5l0.2,1c0.3,1.1,0.9,2.4,1.8,3.9c1.1,1.9,2.4,3.8,3.7,5.7
							c0.5,0.7,0.9,1.4,1.4,2.1c0.9,1.4,1.8,2.6,2.6,3.7c0.5,0.7,1.2,1.4,1.8,2.1c0.4,0.5,0.9,0.9,1.3,1.4L363.3,193.8z
							 M345.7,169.6c0,0.1,0,0.1-0.1,0.2c0,0.1,0,0.1,0,0.1v0.3c0,0.1,0,0.2,0,0.3c0,0.1,0.1,0.3,0.1,0.4c0,0.2,0.1,0.5,0.1,0.7
							c0,0.1,0.1,0.3,0.1,0.4c0.4,1.6,1.1,3.1,1.9,4.4c1.4,2.3,3,4.5,4.5,6.6l0.8,1.1c0.8,1,1.6,1.9,2.4,2.6c-0.7-0.9-1.3-1.8-2-2.9
							c-0.5-0.7-0.9-1.4-1.4-2.1c-1.3-1.9-2.6-3.9-3.8-5.8c-0.9-1.5-1.5-2.9-1.9-4.2l-0.2-1.1c-0.1-0.3-0.2-0.9-0.1-1.2
							c0.1-0.3,0.1-0.7-0.1-1.1c-0.1-0.4-0.3-0.7-0.7-1c-0.6-0.6-1.1-1-2-1.4c-0.1-0.1-0.3-0.1-0.4-0.2c0.1,0.1,0.2,0.1,0.3,0.2
							c0.7,0.5,1.3,1,1.7,1.6c0.2,0.3,0.4,0.6,0.5,0.9C345.8,168.9,345.8,169.3,345.7,169.6z"/>
					</g>
				</g>
			</g>
		</g>
		<g>
			<g>
				<g>
					<g>
						<path class="st3" d="M347.9,217.5"/>
					</g>
				</g>
			</g>
		</g>
		<g>
			<g>
				<g>
					<g>
						<path d="M334.9,168.4c-0.3,2.4,0,4.7,0.7,7l0.9,3.5c0.3,1.1,0.7,2.3,1,3.4c0.3,1.1,0.7,2.2,1.1,3.3l0.6,1.6
							c0.2,0.5,0.5,1.1,0.7,1.6c0.5,1,1.1,2,1.6,2.9c0.6,0.9,1.3,1.7,2,2.4l0.7,0.7l-0.1,0.9c-0.1,1.5-0.3,3.1-0.3,4.7
							s-0.1,3.2,0.1,4.7c0.1,0.7,0.2,1.5,0.4,2.1l0.1,0.2c0,0.1,0.1,0.1,0.1,0.2c0.1,0.2,0.2,0.4,0.3,0.6c0.2,0.4,0.4,0.8,0.5,1.2
							c0.3,0.8,0.5,1.6,0.8,2.4c0.3,0.7,0.5,1.5,1.2,1.9l-0.1,0.2c-0.8-0.3-1.3-1.1-1.7-1.8c-0.4-0.7-0.7-1.5-1.1-2.2
							c-0.2-0.3-0.4-0.7-0.6-1c-0.2-0.3-0.5-0.7-0.7-1c-0.4-0.7-0.6-1.6-0.7-2.4c-0.3-1.6-0.4-3.2-0.4-4.9c0-1.6,0-3.3,0.1-4.9
							l0.1,0.1c-0.9-0.8-1.8-1.8-2.4-2.8c-0.7-1-1.3-2.1-1.8-3.2c-1-2.2-1.8-4.5-2.4-6.9c-0.6-2.4-1-4.7-1.4-7.1
							C334.1,173.3,334,170.8,334.9,168.4L334.9,168.4z"/>
					</g>
					<g>
						<path d="M347.8,214.6l-0.7-0.3c-1-0.4-1.6-1.3-2-2.1c-0.3-0.5-0.5-1-0.7-1.5c-0.1-0.2-0.2-0.5-0.3-0.7l-0.6-0.9
							c-0.1-0.1-0.2-0.3-0.3-0.5c-0.1-0.2-0.3-0.3-0.3-0.5c-0.5-0.9-0.7-1.9-0.8-2.6c-0.3-1.7-0.4-3.3-0.4-5.1c0-1.5,0-3,0.1-4.6
							c-0.8-0.7-1.6-1.6-2.2-2.6c-0.7-1.1-1.4-2.2-1.8-3.3c-0.9-2-1.7-4.3-2.4-7c-0.5-2.1-0.9-4.3-1.4-7.2c-0.5-2.9-0.4-5.3,0.3-7.6
							l0.1-0.5h1.4l-0.1,0.7c-0.3,2.1-0.1,4.3,0.7,6.7l0.9,3.5c0.2,0.8,0.5,1.7,0.7,2.5c0.1,0.3,0.2,0.5,0.3,0.8
							c0.3,1.1,0.7,2.2,1.1,3.2l0.6,1.6c0.1,0.3,0.3,0.7,0.4,1c0.1,0.2,0.1,0.3,0.3,0.5c0.3,0.7,0.7,1.4,1.1,2
							c0.1,0.3,0.3,0.5,0.5,0.8c0.6,0.8,1.2,1.6,1.9,2.2l1,0.9l-0.1,1.2c-0.1,1.4-0.3,3-0.3,4.7c-0.1,1.8-0.1,3.2,0.1,4.6
							c0.1,0.7,0.2,1.4,0.4,2l0.1,0.1l0.1,0.1c0.1,0.1,0.1,0.3,0.2,0.4c0.1,0.1,0.1,0.1,0.1,0.2l0.1,0.1c0.2,0.4,0.4,0.9,0.6,1.3
							c0.2,0.5,0.3,0.9,0.5,1.5c0.1,0.3,0.2,0.6,0.3,0.9c0.3,0.7,0.5,1.3,0.9,1.6l0.5,0.3L347.8,214.6z M342.9,196.9
							c-0.1,1.1-0.1,2.3-0.1,3.4c0,1.6,0.1,3.2,0.4,4.8c0.1,0.2,0.1,0.4,0.1,0.6c-0.1-0.3-0.1-0.5-0.1-0.8c-0.1-1.4-0.1-3-0.1-4.7
							c0.1-0.9,0.1-2,0.2-2.9L342.9,196.9z M342.1,193.6l1.4,2.7c0-0.3,0.1-0.5,0.1-0.7l0.1-0.5l-0.5-0.5
							C342.8,194.2,342.4,193.9,342.1,193.6z M335.5,178.1c0.3,1.7,0.6,3.1,0.9,4.5c0.7,2.6,1.4,4.8,2.3,6.8c0.5,1,1,2,1.7,3.1
							c0.4,0.5,0.8,1.1,1.2,1.6l0.1-0.8c-0.3-0.3-0.6-0.7-0.9-1.1c-0.2-0.3-0.3-0.5-0.5-0.8c-0.4-0.7-0.8-1.4-1.2-2.2
							c-0.1-0.2-0.1-0.3-0.2-0.5c-0.1-0.3-0.3-0.7-0.5-1.1l-0.6-1.6c-0.5-1.1-0.9-2.3-1.1-3.4c-0.1-0.3-0.2-0.5-0.3-0.8
							c-0.3-0.8-0.5-1.7-0.7-2.6L335.5,178.1z"/>
					</g>
				</g>
			</g>
		</g>
		<g>
			<g>
				<g>
					<g>
						<path d="M324.1,216.1c1.3-1.5,2.8-2.6,4.5-3.7c0.8-0.5,1.6-0.9,2.5-1.4c0.9-0.4,1.8-0.8,2.6-1.1c0.9-0.3,1.8-0.6,2.8-0.8
							c0.5-0.1,1-0.1,1.6-0.2c0.6,0,1,0,1.5,0.1c0.9,0.1,1.8,0.1,2.8,0.2l1.4,0.1l0.7,0.1c0.3,0.1,0.5,0.1,0.7,0.3v0.1
							c-0.5-0.1-0.9,0-1.4,0c-0.5,0.1-0.9,0.1-1.4,0.1c-0.9,0.1-1.9,0.1-2.8,0.1c-1.9-0.1-3.7,0.5-5.4,1.1c-1.8,0.6-3.4,1.4-5.1,2.2
							c-1.7,0.8-3.3,1.8-4.9,2.8H324.1z"/>
					</g>
					<g>
						<path d="M324.5,216.7h-1.9l0.9-1.1c1.1-1.4,2.6-2.5,4.6-3.8c0.7-0.5,1.4-0.8,2-1.1l0.5-0.3c0.9-0.4,1.8-0.8,2.7-1.2
							c1.1-0.4,2-0.7,3-0.8c0.5-0.1,1-0.1,1.5-0.2h0.2c0.6,0,1.1,0,1.6,0.1l5,0.4c0.3,0.1,0.7,0.1,0.9,0.3l0.3,0.2v1.4l-0.9-0.3
							c-0.2-0.1-0.4,0-0.6,0c-0.1,0-0.3,0-0.5,0c-0.3,0-0.5,0.1-0.7,0.1c-0.2,0-0.5,0-0.7,0.1c-0.5,0.1-1,0.1-1.5,0.1
							s-0.9,0-1.4,0.1h-0.1h-0.1c-1.8-0.1-3.6,0.5-5.1,1.1c-1.6,0.5-3.2,1.2-5.1,2.2c-1.6,0.7-3.1,1.6-4.8,2.7L324.5,216.7z
							 M335.7,209.9c-0.5,0.1-1.1,0.3-1.8,0.5c-0.5,0.2-0.9,0.4-1.4,0.6c0.5-0.2,1.1-0.4,1.6-0.6
							C334.6,210.3,335.1,210.1,335.7,209.9z"/>
					</g>
				</g>
			</g>
		</g>
		<g>
			<g>
				<g>
					<g>
						<path d="M343.1,194.2c-0.6-0.1-1.1-0.4-1.6-0.5c-0.1,0-0.1-0.1-0.2-0.1c0,0-0.1,0,0,0c0.1,0,0.1,0,0.1-0.1l0.1-0.1l0,0v0.1
							v0.1l-0.1,0.2c0,0.2-0.1,0.4,0,0.6c0,0.4,0.2,0.9,0.1,1.6c-0.1,0.7-0.6,1.2-1.2,1.4l-0.1-0.1c0.3-0.4,0.6-0.9,0.7-1.4
							s-0.1-1.1-0.1-1.6c0-0.3,0.1-0.5,0.2-0.8c0-0.1,0.1-0.1,0.1-0.2l0.1-0.1c0,0,0-0.1,0.1-0.1c0.2,0,0.3,0.1,0.4,0.1
							C342.2,193.6,342.6,193.9,343.1,194.2L343.1,194.2z"/>
					</g>
					<g>
						<path d="M340.1,198.2l-0.8-0.8l0.4-0.5c0.3-0.3,0.5-0.7,0.5-1.1c0-0.2,0-0.4-0.1-0.7c-0.1-0.3-0.1-0.6-0.1-0.9s0.1-0.7,0.2-1
							c0-0.1,0-0.1,0.1-0.1v-0.1l0.2-0.2c0.1-0.2,0.3-0.3,0.6-0.3c0.1,0,0.1,0,0.3,0l0.7-0.7v1c0.3,0.1,0.5,0.3,0.7,0.4
							c0.2,0.1,0.3,0.2,0.5,0.3l3.9,2.2l-4.3-0.9c-0.3-0.1-0.5-0.1-0.8-0.3c0,0.1,0,0.1,0,0.1c0.1,0.3,0.1,0.8,0,1.4
							c-0.2,0.9-0.8,1.6-1.7,2L340.1,198.2z"/>
					</g>
				</g>
			</g>
		</g>
		<g>
			<g>
				<g>
					<g>
						<path d="M320.6,175.8c0.1,0.5,0.2,0.9,0.3,1.4c0.1,0.5,0,0.9,0.1,1.4c0.1,0.9,0.1,1.8,0.2,2.6c0.2,1.8,0.4,3.5,0.7,5.3
							c0.6,3.4,1.5,7,2.3,10.4c0.9,3.4,2,6.6,4.2,9.4c1.1,1.4,2.2,2.8,3.6,3.9c0.1,0.1,0.2,0.1,0.3,0.2l0.1,0.1c0.1,0,0,0,0.1,0h0.1
							h0.7l1.4,0.1h0.7c0.1,0,0.3,0,0.4,0c-0.1,0-0.1,0-0.2,0h0.2c-0.1,0.1-0.3,0.1-0.4,0.1h-0.7l-1.4-0.1h-0.7c-0.1,0-0.1,0-0.2,0
							l-0.1-0.1c-0.1-0.1-0.2-0.1-0.3-0.1c-1.6-0.9-2.8-2.2-4.1-3.6c-0.6-0.7-1.2-1.4-1.7-2.1c-0.5-0.7-0.9-1.6-1.4-2.4
							c-0.8-1.6-1.4-3.4-1.8-5.1c-0.9-3.4-1.7-7-2.2-10.5c-0.2-1.8-0.3-3.6-0.4-5.4c0-0.9,0-1.8,0.1-2.7c0-0.5,0.1-0.9,0.1-1.4
							s-0.1-0.9-0.1-1.4L320.6,175.8z"/>
					</g>
					<g>
						<path d="M335.2,211.3h-0.7l-1.4-0.1h-1l-0.3-0.1h-0.1c-0.1,0-0.2-0.1-0.3-0.1c-1.7-0.9-3-2.4-4.2-3.7
							c-0.6-0.7-1.3-1.4-1.8-2.2c-0.5-0.7-0.9-1.6-1.4-2.4c-0.8-1.7-1.4-3.5-1.9-5.2c-1.1-4.3-1.8-7.6-2.2-10.6
							c-0.2-1.8-0.3-3.6-0.4-5.5c0-0.9,0-1.9,0.1-2.8c0-0.2,0-0.4,0.1-0.7c0-0.2,0-0.4,0-0.6s0-0.4,0-0.6c0-0.3-0.1-0.5-0.1-0.7
							v-0.7h1.4l0.1,0.5c0.1,0.5,0.2,1,0.3,1.4c0.1,0.3,0.1,0.5,0.1,0.8c0,0.2,0,0.4,0,0.5l0.2,2.7c0.2,1.7,0.4,3.4,0.7,5.2
							c0.5,2.8,1.2,5.8,1.9,8.7l0.4,1.8c0.8,3.1,1.8,6.4,4.1,9.1c1.1,1.4,2.1,2.8,3.4,3.7l0.1,0.1c0.1,0,0.1,0.1,0.1,0.1h0.6
							l1.4,0.1h3.9l-2.6,1.3c-0.1,0.1-0.3,0.1-0.3,0.1h-0.1l-0.1,0.1L335.2,211.3z"/>
					</g>
				</g>
			</g>
		</g>
		<g>
			<g>
				<g>
					<g>
						<path d="M330.5,209.2c-0.4,0.7-1.1,1.2-1.9,1.5c-0.7,0.3-1.6,0.4-2.4,0.5c-0.8,0.1-1.6,0.1-2.4,0c-0.8-0.1-1.6-0.2-2.4-0.5
							c-1.6-0.7-2.5-2-3.6-3.1c-1-1.1-2.1-2.3-3.1-3.4c-1-1.1-2-2.4-2.8-3.7c-0.5-0.6-0.9-1.2-1.3-1.9c-0.4-0.7-0.8-1.4-1.1-2.1
							c-1.3-2.8-2.1-5.8-2.8-8.9l0.1-0.1c1.5,2.7,2.6,5.6,3.9,8.2c0.7,1.4,1.4,2.6,2.2,3.9l2.4,3.9c0.8,1.3,1.7,2.6,2.8,3.6
							c1.1,1.1,2.4,2,3.7,2.4c0.6,0.2,1.4,0.3,2.1,0.4c0.7,0.1,1.5,0.1,2.2,0.1s1.5,0,2.2-0.1c0.7-0.1,1.3-0.3,1.8-0.9L330.5,209.2z
							"/>
					</g>
					<g>
						<path d="M325,211.9c-0.4,0-0.8,0-1.2-0.1c-1-0.1-1.8-0.3-2.6-0.6c-1.4-0.7-2.2-1.6-3.1-2.5c-0.2-0.3-0.5-0.5-0.7-0.7
							c-0.5-0.6-1.1-1.1-1.6-1.8c-0.5-0.6-1.1-1.1-1.6-1.8c-1-1.1-2-2.4-2.9-3.7c-0.4-0.5-0.9-1.1-1.3-1.9c-0.4-0.7-0.8-1.4-1.2-2.2
							c-1.4-3.2-2.2-6.5-2.8-9l-0.1-0.5l1.2-0.6l0.3,0.5c0.9,1.7,1.8,3.5,2.6,5.3c0.5,1.1,0.9,2,1.4,3c0.6,1.2,1.4,2.5,2.2,3.9
							l2.4,3.9c0.9,1.4,1.7,2.5,2.7,3.4c1.1,1.1,2.3,1.9,3.5,2.3c0.3,0.1,0.8,0.2,1.3,0.3c0.2,0.1,0.5,0.1,0.7,0.1
							c0.7,0.1,1.4,0.1,2.1,0.1c0.7,0,1.4,0,2-0.1c0.6-0.1,1.1-0.3,1.5-0.7l0.3-0.3l1.2,0.6l-0.3,0.6c-0.5,1-1.6,1.6-2.2,1.8
							c-0.7,0.3-1.6,0.4-2.6,0.5C325.9,211.8,325.4,211.9,325,211.9z M309.4,194.2c0.3,0.6,0.5,1.3,0.7,1.9c0.3,0.7,0.7,1.4,1.1,2
							c0.3,0.5,0.7,1,1,1.5c-0.8-1.3-1.4-2.4-2-3.6C309.9,195.4,309.6,194.8,309.4,194.2z"/>
					</g>
				</g>
			</g>
		</g>
		<g>
			<g>
				<g>
					<g>
						<path d="M301.3,203.1c0.3,0.7,0.7,1.4,1.2,1.9s0.9,1.1,1.5,1.6l1.8,1.4c0.3,0.2,0.6,0.5,0.9,0.7c0.3,0.2,0.5,0.4,0.7,0.7
							c1.2-0.3,2.4-0.5,3.7-0.7s2.5-0.1,3.8,0.1c1.2,0.1,2.4,0.4,3.7,0.6c0.6,0.1,1.1,0.2,1.8,0.3c0.5,0.1,0.9,0.3,1.5,0
							c0.1,0.1,0.3,0,0.4,0c-0.5,0.5-1.2,0.7-1.8,0.8c-0.7,0.1-1.3,0.1-2,0.1c-1.3-0.1-2.5-0.3-3.7-0.5c-1.2-0.2-2.4-0.4-3.6-0.6
							c-1.2-0.2-2.4-0.2-3.6,0.3l-0.1,0.1l-0.1-0.1c-0.7-0.3-1.4-0.6-2.2-0.9s-1.4-0.8-2-1.4c-0.6-0.5-1.1-1.2-1.5-2
							c-0.3-0.7-0.6-1.6-0.6-2.4L301.3,203.1z"/>
					</g>
					<g>
						<path d="M318.4,211.2c-1.4-0.1-2.6-0.3-3.8-0.5c-0.6-0.1-1.1-0.2-1.8-0.3c-0.6-0.1-1.2-0.2-1.8-0.3c-1.2-0.2-2.2-0.1-3.1,0.2
							l-0.3,0.3l-0.5-0.3c-0.4-0.2-0.8-0.3-1.2-0.5c-0.3-0.1-0.6-0.3-0.9-0.4c-0.7-0.3-1.5-0.8-2.2-1.5c-0.7-0.7-1.3-1.4-1.6-2.2
							c-0.5-1-0.7-1.8-0.7-2.6v-0.7h1.2l0.2,0.4c0.3,0.7,0.7,1.3,1.1,1.8c0.5,0.5,0.9,1,1.4,1.5l1.9,1.5c0.2,0.2,0.5,0.3,0.7,0.5
							l0.1,0.1c0.2,0.1,0.4,0.3,0.5,0.5c1-0.3,2.2-0.5,3.4-0.6c1.4-0.1,2.8-0.1,3.9,0.1c0.8,0.1,1.7,0.3,2.5,0.4
							c0.4,0.1,0.8,0.1,1.2,0.2c0.3,0.1,0.6,0.1,0.9,0.2c0.3,0.1,0.6,0.1,0.9,0.2c0.1,0,0.2,0.1,0.3,0.1c0.3,0.1,0.5,0.1,0.7,0
							l0.4-0.2l0.1,0.1c0.1,0,0.1,0,0.1,0h1.5l-1,1.1c-0.5,0.5-1.3,0.9-2.2,1C319.7,211.2,319.1,211.2,318.4,211.2z M314.8,209.4
							c0.1,0,0.1,0,0.1,0c0.7,0.1,1.4,0.3,2.2,0.3C316.3,209.6,315.6,209.4,314.8,209.4C314.9,209.4,314.8,209.4,314.8,209.4z"/>
					</g>
				</g>
			</g>
		</g>
		<g>
			<g>
				<g>
					<g>
						<path d="M331.8,223.4c-1.1,2.3-2.2,4.5-3.1,6.8c-0.9,2.3-1.5,4.7-1.7,7.2c-0.1,2.4,0.1,4.9,1.1,7c1.1,2,3.1,3.6,5.3,4.3
							l0.4,0.1v0.4c0,1.1,0,2.2-0.1,3.2c0,1.1-0.1,2.2-0.1,3.2c-0.1,2.2-0.2,4.3-0.4,6.4c-0.2-2.2-0.3-4.3-0.3-6.5l-0.3-6.4
							c-0.7,0.1-1.1-0.1-1.5-0.1c-0.6-0.2-1-0.5-1.7-1.1c-1.1-0.8-2-1.8-2.6-3c-0.7-1.1-1-2.5-1.2-3.8c-0.2-1.3-0.1-2.6,0-3.9
							c0.3-2.6,1-5.1,2.2-7.4C329,227.6,330.3,225.5,331.8,223.4z"/>
					</g>
					<g>
						<path d="M333.9,262.2h-1.4c-0.2-2.2-0.3-4.4-0.3-6.6l-0.3-5.7c-0.3,0-0.6-0.1-0.8-0.1l-0.2-0.1c-0.7-0.2-1.1-0.6-1.8-1.1
							l-0.1-0.1c-1.1-0.9-2.1-2-2.8-3.2c-0.6-1-1-2.3-1.3-4c-0.2-1.5-0.1-3,0-4.1c0.3-2.6,1-5.2,2.2-7.6c1.3-2.5,2.8-4.7,4.1-6.6
							l1.1,0.7c-0.3,0.5-0.5,1.1-0.8,1.7c-0.8,1.8-1.6,3.4-2.3,5.1c-0.9,2.2-1.4,4.5-1.6,7c-0.1,2.8,0.2,4.9,1.1,6.6
							c0.9,1.8,2.8,3.3,4.9,4l0.9,0.3v0.9c0,1.1,0,2.2-0.1,3.3c0,1.1-0.1,2.2-0.1,3.2C334.3,257.9,334.1,260.1,333.9,262.2z
							 M330.5,247.9c0.2,0.1,0.4,0.3,0.5,0.4C330.8,248.2,330.7,248.1,330.5,247.9z M326.3,237c0,0.1,0,0.2-0.1,0.3
							c-0.1,1.1-0.2,2.4,0,3.7c0.3,1.5,0.6,2.6,1.1,3.5c0.5,1,1.2,1.8,2.1,2.6c-0.8-0.7-1.5-1.6-2-2.5c-1-1.9-1.4-4.3-1.2-7.3
							C326.3,237.2,326.3,237.1,326.3,237z"/>
					</g>
				</g>
			</g>
		</g>
		<g>
			<g>
				<g>
					<g>
						<path d="M355.6,240.3c-0.1,0-0.1,0.1-0.1,0.1s0,0.1,0,0.1s0,0.1,0.1,0.1c0,0,0,0,0.1,0c0,0,0.1,0,0,0c0,0.1,0,0.1,0,0.3
							c-0.1,0.3-0.1,0.7-0.2,0.9c-0.1,0.6-0.4,1.2-0.7,1.8c-0.5,1.1-1.3,2.2-2.2,3s-1.9,1.7-3,2.2c-1.1,0.5-2.5,0.9-3.9,0.7
							l-0.1-0.2c1.1-0.5,2-1.1,3-1.8c0.9-0.7,1.8-1.5,2.6-2.4c0.8-0.8,1.6-1.7,2.3-2.6c0.3-0.5,0.7-0.9,1-1.4
							c0.1-0.3,0.3-0.5,0.5-0.7l0.1-0.2c0.1-0.1,0.1-0.1,0.2-0.2s0.1-0.1,0.3-0.1c0.1,0,0.3,0.1,0.3,0.1L355.6,240.3z"/>
					</g>
					<g>
						<path d="M346.4,250.5c-0.3,0-0.5,0-0.8-0.1l-0.4-0.1l-0.4-1.1l0.5-0.3c0.9-0.4,1.8-0.9,2.8-1.8c0.9-0.7,1.7-1.4,2.5-2.3
							c0.7-0.7,1.4-1.6,2.2-2.6l0.9-1.4c0.1-0.1,0.2-0.3,0.3-0.4c0.1-0.1,0.1-0.2,0.2-0.3l0.3-0.4l0.2-0.2c0.3-0.3,0.5-0.3,0.7-0.3
							c0.3,0,0.9,0.3,0.9,0.8v0.4l-0.2,0.1v0.3c0,0.1,0,0.2-0.1,0.3c0,0.2-0.1,0.5-0.2,0.7c-0.1,0.7-0.4,1.3-0.7,1.9
							c-0.5,1.2-1.4,2.3-2.3,3.2c-1.1,1.1-2.2,1.8-3.2,2.4C348.6,250.2,347.4,250.5,346.4,250.5z M354.6,242.2l-0.6,0.9
							c-0.9,1.1-1.6,2-2.4,2.7c-0.8,0.9-1.8,1.7-2.6,2.4c-0.3,0.2-0.5,0.4-0.7,0.5c0.3-0.1,0.6-0.2,0.9-0.4c0.9-0.5,1.9-1.1,2.8-2.1
							c0.9-0.9,1.6-1.8,2-2.8C354.3,243,354.5,242.6,354.6,242.2z M355.7,240.7h0.4c0-0.1,0.1-0.1,0.1-0.1c0-0.2-0.2-0.4-0.4-0.5
							l0.1,0.2h-0.2L355.7,240.7L355.7,240.7C355.7,240.7,355.8,240.6,355.7,240.7L355.7,240.7z"/>
					</g>
				</g>
			</g>
		</g>
	</g>
</g>
</svg>
