<svg width="18" height="19" viewBox="0 0 18 19" xmlns="http://www.w3.org/2000/svg">
<path d="M15.1875 1.11212C15.4688 1.11212 15.75 1.39337 15.75 1.67462V4.20587C15.75 4.38165 15.6094 4.48712 15.4688 4.48712H14.9062C14.7305 4.48712 14.625 4.38165 14.625 4.20587V2.23712H8.4375V11.7808C8.18991 12.3833 8.05338 13.0431 8.05338 13.7348C8.05338 14.4265 8.18991 15.0863 8.4375 15.6888V15.7371H8.45765C8.62853 16.1411 8.84954 16.5187 9.11289 16.8621H4.78125C4.60547 16.8621 4.5 16.7567 4.5 16.5809V16.0184C4.5 15.8777 4.60547 15.7371 4.78125 15.7371H7.3125V2.23712H1.125V4.20587C1.125 4.38165 0.984375 4.48712 0.84375 4.48712H0.28125C0.105469 4.48712 0 4.38165 0 4.20587V1.67462C0 1.39337 0.246094 1.11212 0.5625 1.11212H15.1875Z"/>
<path fill-rule="evenodd" clip-rule="evenodd" d="M15.2973 16.535C14.7124 16.9744 13.9852 17.2348 13.1973 17.2348C11.2643 17.2348 9.69727 15.6678 9.69727 13.7348C9.69727 11.8018 11.2643 10.2348 13.1973 10.2348C15.1303 10.2348 16.6973 11.8018 16.6973 13.7348C16.6973 14.5228 16.4369 15.2499 15.9975 15.8349C16.0161 15.8489 16.0339 15.8643 16.0508 15.8812L17.5508 17.3812C17.7461 17.5765 17.7461 17.8931 17.5508 18.0884C17.3556 18.2836 17.039 18.2836 16.8437 18.0884L15.3437 16.5884C15.3268 16.5714 15.3113 16.5536 15.2973 16.535ZM15.6973 13.7348C15.6973 15.1155 14.578 16.2348 13.1973 16.2348C11.8166 16.2348 10.6973 15.1155 10.6973 13.7348C10.6973 12.3541 11.8166 11.2348 13.1973 11.2348C14.578 11.2348 15.6973 12.3541 15.6973 13.7348Z"/>
</svg>
