<svg width="629" height="445" viewBox="0 0 629 445" fill="none" xmlns="http://www.w3.org/2000/svg">
<path d="M625.793 199.672L598.33 155.31V119.866H600.208C603.26 119.866 605.842 117.519 605.842 114.233V110.477C605.842 107.426 603.26 104.844 600.208 104.844H551.386C548.1 104.844 545.752 107.426 545.752 110.477V114.233C545.752 117.519 548.1 119.866 551.386 119.866H553.264V155.31L525.566 199.672C518.759 210.704 526.74 225.022 539.65 225.022H611.71C624.619 225.022 632.6 210.704 625.793 199.672ZM555.376 179.955L566.878 161.882C567.582 160.708 568.051 159.065 568.051 157.422V119.866H583.073V157.422C583.073 159.065 583.778 160.708 584.482 161.882L595.748 179.955H555.376Z" fill="#EBF2F2"/>
<path d="M548.108 391.933C559.375 374.094 563.835 355.551 553.507 345.223C543.179 334.895 524.636 339.355 506.562 350.622C488.723 339.355 470.18 334.895 459.852 345.223C449.525 355.551 453.984 374.094 465.251 391.933C453.984 410.007 449.525 428.55 459.852 438.878C469.711 448.501 487.08 445.685 506.562 433.479C526.279 445.685 543.649 448.501 553.507 438.878C563.835 428.55 559.375 410.007 548.108 391.933ZM493.418 423.856C482.386 429.724 473.466 431.132 470.65 428.081C467.598 425.264 469.007 416.579 474.875 405.312C481.682 413.528 487.315 418.926 493.418 423.856ZM474.875 378.789C469.007 367.522 467.598 358.837 470.65 356.021C471.589 354.847 473.232 354.377 475.579 354.377C479.804 354.377 486.141 356.255 493.418 360.246C487.784 364.705 479.334 373.155 474.875 378.789ZM529.8 392.168C521.819 402.496 514.778 409.068 506.562 415.171C496.234 407.19 489.428 400.148 483.559 392.168C488.958 384.657 499.286 374.329 506.797 368.696C514.073 374.329 524.401 384.657 529.8 392.168ZM514.308 391.933C514.308 387.943 510.787 384.422 506.797 384.422H506.562C502.572 384.422 499.051 387.943 499.051 392.168C499.051 396.158 502.572 399.679 506.562 399.679C510.787 399.679 514.308 396.158 514.308 392.168V391.933ZM542.71 356.021C545.761 358.837 544.353 367.522 538.485 378.789C534.025 373.155 525.575 364.705 519.942 360.246C527.218 356.255 533.555 354.377 537.78 354.377C540.128 354.377 541.771 354.847 542.71 356.021ZM538.485 405.312C544.353 416.579 545.761 425.264 542.71 428.081C539.893 431.132 530.974 429.724 519.942 423.856C526.044 418.926 531.678 413.528 538.485 405.312Z" fill="#EBF2F2"/>
<path d="M429.007 43.8441H316.34C310.002 43.8441 305.073 49.008 305.073 55.1108V130.222C305.073 136.56 310.002 141.489 316.34 141.489H361.407L357.651 152.756H340.751C337.465 152.756 335.118 155.338 335.118 158.389C335.118 161.675 337.465 164.022 340.751 164.022H404.596C407.647 164.022 410.229 161.675 410.229 158.389C410.229 155.338 407.647 152.756 404.596 152.756H387.696L383.94 141.489H429.007C435.11 141.489 440.274 136.56 440.274 130.222V55.1108C440.274 49.008 435.11 43.8441 429.007 43.8441ZM425.251 111.444H320.095V58.8663H425.251V111.444Z" fill="#EBF2F2"/>
<path d="M149.022 205.377H134C134 234.483 157.472 257.955 186.578 257.955V291.756C186.578 293.868 188.221 295.511 190.334 295.511H197.845C199.722 295.511 201.6 293.868 201.6 291.756V257.955C201.6 229.085 177.893 205.377 149.022 205.377ZM239.156 190.355C219.204 190.355 202.07 201.387 193.15 217.583C199.722 224.625 204.417 233.31 206.999 242.698C233.523 240.116 254.178 217.583 254.178 190.355H239.156Z" fill="#EBF2F2"/>
<path d="M45.0668 370.444H7.51114C3.28613 370.444 3.8147e-06 373.965 3.8147e-06 377.955V415.511C3.8147e-06 419.736 3.28613 423.022 7.51114 423.022H45.0668C49.0571 423.022 52.578 419.736 52.578 415.511V377.955C52.578 373.965 49.0571 370.444 45.0668 370.444ZM38.0251 403.54C38.964 404.244 38.964 405.418 38.0251 406.122L35.4432 408.704C34.739 409.643 33.5654 409.643 32.8612 408.704L26.289 402.132L19.482 408.704C18.7778 409.643 17.6042 409.643 16.9001 408.704L14.3181 406.122C13.3792 405.418 13.3792 404.244 14.3181 403.54L20.8904 396.733L14.3181 390.161C13.3792 389.457 13.3792 388.283 14.3181 387.579L16.9001 384.997C17.6042 384.058 18.7778 384.058 19.482 384.997L26.289 391.569L32.8612 384.997C33.5654 384.058 34.739 384.058 35.4432 384.997L38.0251 387.579C38.964 388.283 38.964 389.457 38.0251 390.161L31.4529 396.733L38.0251 403.54ZM112.667 302.844H75.1114C70.8864 302.844 67.6002 306.365 67.6002 310.355V347.911C67.6002 352.136 70.8864 355.422 75.1114 355.422H112.667C116.657 355.422 120.178 352.136 120.178 347.911V310.355C120.178 306.365 116.657 302.844 112.667 302.844ZM108.912 331.011C108.912 332.184 107.973 332.889 107.034 332.889H97.6448V342.278C97.6448 343.451 96.7059 344.155 95.767 344.155H92.0114C90.8378 344.155 90.1337 343.451 90.1337 342.278V332.889H80.7447C79.5711 332.889 78.867 332.184 78.867 331.011V327.255C78.867 326.316 79.5711 325.377 80.7447 325.377H90.1337V315.989C90.1337 315.05 90.8378 314.111 92.0114 314.111H95.767C96.7059 314.111 97.6448 315.05 97.6448 315.989V325.377H107.034C107.973 325.377 108.912 326.316 108.912 327.255V331.011ZM112.667 370.444H75.1114C70.8864 370.444 67.6002 373.965 67.6002 377.955V415.511C67.6002 419.736 70.8864 423.022 75.1114 423.022H112.667C116.657 423.022 120.178 419.736 120.178 415.511V377.955C120.178 373.965 116.657 370.444 112.667 370.444ZM108.912 406.122C108.912 407.296 107.973 408 107.034 408H80.7447C79.5711 408 78.867 407.296 78.867 406.122V402.367C78.867 401.428 79.5711 400.489 80.7447 400.489H107.034C107.973 400.489 108.912 401.428 108.912 402.367V406.122ZM108.912 391.1C108.912 392.274 107.973 392.978 107.034 392.978H80.7447C79.5711 392.978 78.867 392.274 78.867 391.1V387.344C78.867 386.405 79.5711 385.467 80.7447 385.467H107.034C107.973 385.467 108.912 386.405 108.912 387.344V391.1ZM45.0668 302.844H7.51114C3.28613 302.844 3.8147e-06 306.365 3.8147e-06 310.355V347.911C3.8147e-06 352.136 3.28613 355.422 7.51114 355.422H45.0668C49.0571 355.422 52.578 352.136 52.578 347.911V310.355C52.578 306.365 49.0571 302.844 45.0668 302.844ZM41.3113 331.011C41.3113 332.184 40.3724 332.889 39.4335 332.889H13.1445C11.9709 332.889 11.2667 332.184 11.2667 331.011V327.255C11.2667 326.316 11.9709 325.377 13.1445 325.377H39.4335C40.3724 325.377 41.3113 326.316 41.3113 327.255V331.011Z" fill="#EBF2F2"/>
<path d="M314.179 330.921L327.324 344.065C328.028 344.769 328.028 345.943 327.324 346.647L324.507 349.464C323.803 350.168 322.629 350.168 321.925 349.464L308.781 336.319L298.218 346.882L311.363 360.026C312.067 360.73 312.067 361.904 311.363 362.608L308.781 365.425C308.077 366.129 306.668 366.129 305.964 365.425L293.054 352.28L286.717 358.383C282.726 362.373 280.849 368.007 281.318 373.64L282.961 388.662L267.469 404.154C266.765 405.093 266.765 406.267 267.469 406.971L270.051 409.553C270.756 410.257 271.929 410.257 272.633 409.553L288.36 394.061L303.147 395.704C308.781 396.174 314.414 394.296 318.639 390.306L361.359 347.586L329.436 315.664L314.179 330.921ZM386.474 309.091L367.931 290.548C367.227 289.844 366.053 289.844 365.349 290.548L362.532 293.13C361.828 293.834 361.828 295.008 362.532 295.712L369.339 302.519L358.542 313.082L345.398 299.702L341.407 295.712C340.703 295.008 339.529 295.008 338.825 295.712L330.845 303.693C330.141 304.397 330.141 305.571 330.845 306.509L334.835 310.5L366.523 342.187L370.513 346.178C371.217 347.116 372.625 347.116 373.33 346.178L381.31 338.197C382.014 337.493 382.014 336.319 381.31 335.615L363.941 318.48L374.503 307.683L381.31 314.49C382.014 315.194 383.188 315.194 383.892 314.49L386.474 311.673C387.178 310.969 387.178 309.796 386.474 309.091Z" fill="#EBF2F2"/>
<path d="M107.089 0.721853C74.932 0.721853 48.8778 27.0108 48.8778 58.9332C48.8778 91.0902 74.932 117.144 107.089 117.144C139.011 117.144 165.3 91.0902 165.3 58.9332C165.3 27.0108 139.011 0.721853 107.089 0.721853ZM126.336 84.7527C125.398 85.6916 124.459 86.6305 123.52 87.3347C122.816 88.0388 122.346 88.9777 122.111 89.9166C121.877 91.325 121.642 92.4986 121.172 93.9069L116.947 104.939C113.661 105.643 110.375 105.878 107.089 105.878V99.5403C107.324 96.4889 105.211 91.0902 101.69 87.5694C100.282 86.161 99.578 84.2833 99.578 82.1708V74.6596C99.578 72.0777 97.9349 69.4957 95.5877 68.0874C92.3016 66.2096 87.3724 63.6276 84.0862 61.9846C81.5043 60.5762 78.9223 58.9332 76.8098 56.8207H76.5751C75.1668 55.647 73.289 53.2998 72.3501 51.8915C70.0029 48.6054 66.482 43.4415 64.1348 39.9206C69.064 29.1233 77.514 20.6733 88.3113 15.9789L93.9446 18.7955C96.5266 19.9691 99.578 18.3261 99.578 15.5094V12.6927C101.221 12.458 103.334 12.2233 105.211 12.2233L111.784 18.7955C113.192 20.2039 113.192 22.7858 111.784 24.1942L110.845 25.1331L108.263 27.715C107.559 28.4192 107.559 29.5928 108.263 30.297L109.436 31.4706C110.141 32.1747 110.141 33.3484 109.436 34.0525L107.559 35.9303C107.324 36.165 106.62 36.3998 106.15 36.3998H104.038C103.568 36.3998 103.099 36.6345 102.864 37.1039L100.517 39.2164C100.047 39.6859 99.8127 40.1553 99.8127 40.6248C99.8127 40.8595 100.047 41.3289 100.047 41.5637L103.803 48.8401C104.272 50.0137 103.568 51.422 102.16 51.422H100.752C100.282 51.422 99.8127 51.422 99.578 51.1873L97.2307 49.0748C96.7613 48.6054 95.5877 48.3706 94.8835 48.3706C94.4141 48.3706 93.9446 48.3706 93.7099 48.3706L86.4335 50.9526C85.2599 51.1873 84.5557 52.3609 84.5557 53.5345C84.5557 54.7082 85.0251 55.647 85.964 56.1165L88.546 57.2901C90.8932 58.4637 93.2404 58.9332 95.8224 58.9332C98.1696 58.9332 100.986 65.5054 103.334 66.4443H118.825C120.938 66.4443 122.816 67.3832 124.224 68.7915L127.51 72.0777C128.684 73.0166 129.623 75.3638 129.623 77.0068C129.623 79.5888 127.979 83.1096 126.336 84.7527ZM146.757 63.3929C145.349 62.9235 144.175 62.2193 143.236 61.0457L139.011 54.7082C138.542 53.7693 138.073 52.5956 138.073 51.422C138.073 50.4831 138.542 49.3095 139.011 48.3706L143.706 41.5637C144.175 40.6248 144.88 40.1553 145.818 39.6859L148.87 38.0428C152.156 44.3803 154.034 51.422 154.034 58.9332C154.034 61.0457 153.799 63.1582 153.564 65.036L146.757 63.3929Z" fill="#EBF2F2"/>
</svg>
